<svg xmlns="http://www.w3.org/2000/svg" viewBox="0 66 400 262" role="img" aria-label="Valencia JUG — Java User Group">
  <defs>
    <radialGradient id="nose" cx="0.38" cy="0.34" r="0.75">
      <stop offset="0" stop-color="#FF8A6E"/>
      <stop offset="0.45" stop-color="#F44A2A"/>
      <stop offset="1" stop-color="#C32A18"/>
    </radialGradient>
  </defs>
  <path d="M 62 74.642 C 56.622 75.252, 44.998 78.137, 45.014 78.858 C 45.022 79.211, 47.173 80.682, 49.793 82.126 C 57.356 86.295, 69.523 96.454, 73.908 102.261 C 81.988 112.964, 84.446 122.515, 81.620 132.237 C 80.729 135.301, 80 138.076, 80 138.404 C 80 138.732, 82.138 139.011, 84.750 139.024 C 100.232 139.104, 116.061 148.738, 122.798 162.182 C 126.089 168.749, 129 178.529, 129 183.019 C 129 187.146, 130.960 188.535, 139.500 190.459 C 161.301 195.373, 184.986 208.092, 192.734 219.046 C 194.255 221.197, 195.767 222.967, 196.093 222.979 C 196.420 222.990, 198.576 220.759, 200.886 218.020 C 211.369 205.588, 229.730 196.381, 258.750 189.003 C 261.087 188.409, 263.016 187.378, 263.035 186.711 C 263.184 181.549, 266.297 169.355, 268.837 163.989 C 275.834 149.207, 291.915 139, 308.210 139 C 310.845 139, 313 138.855, 313 138.678 C 313 138.501, 312.274 136.226, 311.387 133.623 C 307.324 121.699, 311.582 109.240, 323.920 96.949 C 330.425 90.469, 334.447 87.382, 345.611 80.302 C 347.198 79.295, 347.271 78.948, 346.069 78.131 C 343.291 76.243, 331.386 74.548, 322 74.705 C 299.009 75.088, 268.965 86.076, 241.250 104.238 C 235.613 107.932, 231 110.765, 231 110.533 C 231 110.302, 232.776 103.237, 234.946 94.835 C 237.116 86.433, 238.738 79.404, 238.549 79.216 C 238.361 79.028, 234.673 80.649, 230.353 82.818 C 206.205 94.947, 188.572 94.967, 163.278 82.894 C 158.622 80.672, 154.656 79.011, 154.465 79.202 C 154.273 79.394, 155.730 86.187, 157.703 94.297 C 159.675 102.408, 161.043 109.290, 160.743 109.591 C 160.442 109.891, 158.014 108.585, 155.348 106.688 C 142.992 97.898, 119.552 86.088, 104.081 80.858 C 90.842 76.383, 71.650 73.548, 62 74.642" stroke="none" fill="#C0B9AF" fill-rule="evenodd"/>
  <g id="eyes">
    <ellipse cx="183" cy="125" rx="10" ry="14.5" fill="#FFFFFF"/>
    <ellipse cx="208" cy="125" rx="10" ry="14.5" fill="#FFFFFF"/>
    <ellipse cx="183" cy="126" rx="6" ry="10.5" fill="#26262A"/>
    <ellipse cx="208" cy="126" rx="6" ry="10.5" fill="#26262A"/>
    <circle cx="180" cy="120" r="2.2" fill="#FFFFFF"/>
    <circle cx="205" cy="120" r="2.2" fill="#FFFFFF"/>
  </g>
  <circle cx="197" cy="150" r="13" fill="url(#nose)"/>
  <path d="M 194.415 245.421 C 187.488 248.437, 184.565 255.491, 185.203 267.648 C 185.689 276.904, 187.042 279.702, 192.990 283.750 C 197.460 286.792, 206.811 286.898, 211.564 283.960 C 214.977 281.851, 218.843 274.173, 217.547 272.077 C 217.181 271.485, 215.109 271, 212.941 271 C 209.473 271, 209 271.282, 209 273.345 C 209 278.700, 200.267 281.162, 196.405 276.896 C 193.734 273.945, 193.088 259.664, 195.421 255.152 C 198.415 249.364, 206.681 249.750, 208.457 255.761 C 209.349 258.780, 209.714 259, 213.832 259 L 218.250 259 217.613 255.750 C 216.754 251.363, 214.060 247.858, 209.929 245.752 C 205.881 243.687, 198.746 243.536, 194.415 245.421 M 4.545 247.142 C 4.939 248.384, 8.039 257.523, 11.434 267.450 L 17.606 285.500 22.053 285.791 L 26.500 286.083 33.255 266.291 C 36.971 255.406, 40.008 246.162, 40.005 245.750 C 40.002 245.338, 38.019 245, 35.597 245 L 31.195 245 29.170 251.750 C 28.056 255.463, 26.142 261.992, 24.916 266.260 C 23.689 270.528, 22.419 273.757, 22.093 273.436 C 21.767 273.115, 19.659 266.698, 17.408 259.176 L 13.316 245.500 8.572 245.192 C 4.048 244.898, 3.862 244.988, 4.545 247.142 M 50.503 246.195 C 50.241 246.913, 47.352 255.375, 44.084 265 C 40.816 274.625, 37.837 283.288, 37.464 284.250 C 36.880 285.759, 37.410 286, 41.310 286 C 45.743 286, 45.861 285.915, 47.247 281.750 L 48.660 277.500 55.612 277.211 L 62.564 276.921 63.778 281.461 C 64.991 285.995, 64.997 286, 69.496 286 C 71.973 286, 73.976 285.663, 73.947 285.250 C 73.918 284.837, 70.844 275.725, 67.115 265 L 60.336 245.500 55.658 245.195 C 52.491 244.988, 50.826 245.311, 50.503 246.195 M 79 265.500 L 79 286 92 286 L 105 286 105 282.500 L 105 279 96 279 L 87 279 87 262 L 87 245 83 245 L 79 245 79 265.500 M 111 265.500 L 111 286 125 286 L 139 286 139 282.500 L 139 279 129.500 279 L 120 279 120 273.540 L 120 268.081 128.203 267.790 L 136.405 267.500 136.405 264.500 L 136.405 261.500 128.203 261.210 L 120 260.919 120 256.460 L 120 252 129.500 252 L 139 252 139 248.500 L 139 245 125 245 L 111 245 111 265.500 M 145 265.500 L 145 286 149.500 286 L 154 286 154.002 272.750 L 154.004 259.500 161.800 272.500 L 169.596 285.500 173.798 285.807 L 178 286.115 178 265.557 L 178 245 174.029 245 L 170.058 245 169.779 258.213 L 169.500 271.427 161.736 258.213 L 153.972 245 149.486 245 L 145 245 145 265.500 M 225 265.500 L 225 286 229.500 286 L 234 286 234 265.500 L 234 245 229.500 245 L 225 245 225 265.500 M 245.631 264.250 C 241.978 274.837, 238.991 284.088, 238.994 284.807 C 238.998 285.724, 240.249 286.023, 243.172 285.807 C 247.105 285.518, 247.426 285.256, 248.756 281.250 L 250.167 277 256.953 277 L 263.740 277 265 281.500 C 266.247 285.955, 266.304 286, 270.630 286 C 273.033 286, 275 285.692, 275 285.316 C 275 284.940, 271.962 275.719, 268.250 264.826 L 261.500 245.020 256.886 245.010 L 252.273 245 245.631 264.250 M 53.554 261.750 C 52.558 264.913, 51.527 268.063, 51.264 268.750 C 50.923 269.641, 52.140 270, 55.500 270 C 58.856 270, 60.078 269.640, 59.743 268.750 C 59.483 268.063, 58.523 264.913, 57.608 261.750 C 56.693 258.587, 55.814 256, 55.655 256 C 55.495 256, 54.550 258.587, 53.554 261.750 M 254.341 263 L 252.279 270 256.640 270 C 259.038 270, 261 269.637, 261 269.194 C 261 268.262, 256.920 256, 256.609 256 C 256.495 256, 255.474 259.150, 254.341 263 M 15 307.378 C 15 312.948, 14.605 315.083, 13.385 316.095 C 12.004 317.242, 11.512 317.115, 9.975 315.218 C 7.933 312.695, 6 312.312, 6 314.429 C 6 316.761, 8.939 319, 12 319 C 16.821 319, 18 316.824, 18 307.929 C 18 301.548, 17.707 300, 16.500 300 C 15.302 300, 15 301.486, 15 307.378 M 34.224 308.722 C 32.440 313.550, 30.985 317.837, 30.991 318.250 C 31.015 320.169, 33.854 318.716, 34.411 316.500 C 34.931 314.428, 35.638 314, 38.544 314 C 41.363 314, 42.236 314.490, 43 316.500 C 43.523 317.875, 44.637 319, 45.475 319 C 46.314 319, 47 318.819, 47 318.597 C 47 318.376, 45.463 314.213, 43.584 309.347 C 41.704 304.481, 39.559 300.375, 38.816 300.222 C 37.940 300.041, 36.329 303.022, 34.224 308.722 M 59 300.731 C 59 301.133, 60.419 305.427, 62.153 310.275 C 64.342 316.397, 65.748 318.998, 66.754 318.794 C 68.130 318.515, 75.399 301.065, 74.509 300.176 C 73.207 298.874, 70.995 301.515, 69.481 306.179 C 68.531 309.105, 67.409 311.878, 66.988 312.339 C 66.567 312.800, 65.236 310.213, 64.030 306.589 C 62.701 302.598, 61.278 300, 60.418 300 C 59.638 300, 59 300.329, 59 300.731 M 89.056 308.250 C 87.265 312.788, 85.572 317.063, 85.293 317.750 C 84.310 320.175, 88.056 318.971, 89.182 316.500 C 90.064 314.564, 91.070 314, 93.641 314 C 96.349 314, 97.078 314.461, 97.589 316.500 C 97.975 318.038, 98.928 319, 100.064 319 C 101.788 319, 101.740 318.553, 99.343 312.250 C 97.930 308.538, 96.331 304.262, 95.790 302.750 C 95.248 301.238, 94.244 300, 93.559 300 C 92.873 300, 90.847 303.712, 89.056 308.250 M 132 307.500 C 132 313.667, 132.356 315.356, 134 317 C 136.426 319.426, 142.194 319.663, 144.429 317.429 C 146.463 315.394, 146.759 299.583, 144.750 300.245 C 143.964 300.504, 143.314 303.411, 143 308.079 C 142.508 315.385, 142.455 315.505, 139.609 315.830 C 137.966 316.018, 136.353 315.586, 135.874 314.830 C 135.410 314.099, 135.024 310.462, 135.015 306.750 C 135.003 301.423, 134.684 300, 133.500 300 C 132.300 300, 132 301.500, 132 307.500 M 162.571 301.571 C 159.226 304.917, 162.148 311, 167.100 311 C 168.010 311, 169.356 311.724, 170.090 312.608 C 171.224 313.975, 171.138 314.426, 169.521 315.608 C 167.012 317.443, 166.373 317.373, 164 315 C 161.648 312.648, 160 312.419, 160 314.443 C 160 316.518, 163.969 319, 167.288 319 C 171.422 319, 174 317.285, 174 314.536 C 174 311.502, 171.977 309.478, 167.454 307.985 C 165.009 307.178, 163.989 306.290, 164.204 305.154 C 164.627 302.921, 169.808 302.337, 170.613 304.433 C 171.347 306.347, 174 306.521, 174 304.655 C 174 300.643, 165.731 298.412, 162.571 301.571 M 188 309.452 L 188 319 194.583 319 C 199.403 319, 201.056 318.665, 200.755 317.750 C 200.525 317.051, 198.283 316.366, 195.672 316.195 C 191.466 315.921, 191 315.646, 191 313.445 C 191 311.259, 191.424 311, 195 311 C 197.889 311, 199 310.583, 199 309.500 C 199 308.417, 197.889 308, 195 308 C 191.400 308, 191 307.750, 191 305.500 C 191 303.161, 191.328 303, 196.083 303 C 199.703 303, 201.048 302.640, 200.754 301.750 C 200.498 300.976, 197.991 300.387, 194.171 300.202 L 188 299.905 188 309.452 M 215 309.500 C 215 317.278, 215.272 319, 216.500 319 C 217.583 319, 218 317.889, 218 315 C 218 311.493, 218.283 311, 220.300 311 C 223.374 311, 225 312.799, 225 316.200 C 225 318.266, 225.489 319, 226.866 319 C 228.484 319, 228.638 318.492, 228.032 315.173 C 227.647 313.068, 227.025 310.849, 226.650 310.242 C 226.274 309.635, 226.425 308.856, 226.984 308.510 C 228.800 307.388, 228.066 303.160, 225.777 301.557 C 224.555 300.701, 221.630 300, 219.277 300 L 215 300 215 309.500 M 261.441 302.066 C 260.088 303.561, 259.571 305.664, 259.571 309.683 C 259.571 314.287, 259.968 315.556, 261.896 317.117 C 264.455 319.189, 269.061 319.573, 272.066 317.965 C 273.479 317.209, 274 315.861, 274 312.965 C 274 309.100, 273.911 309, 270.500 309 C 268.056 309, 267 309.452, 267 310.500 C 267 311.333, 267.889 312, 269 312 C 271.779 312, 271.645 315.598, 268.838 316.332 C 267.649 316.643, 265.828 316.443, 264.790 315.888 C 263.220 315.047, 262.954 313.926, 263.202 309.189 C 263.488 303.729, 263.617 303.487, 266.414 303.168 C 268.300 302.953, 269.641 303.394, 270.214 304.418 C 271.188 306.158, 274 306.591, 274 305 C 274 304.450, 273.100 303.100, 272 302 C 269.324 299.324, 263.891 299.358, 261.441 302.066 M 289 309.500 C 289 317.278, 289.272 319, 290.500 319 C 291.587 319, 292 317.882, 292 314.937 C 292 310.955, 292.065 310.880, 295.250 311.187 C 298.120 311.463, 298.558 311.908, 299 314.989 C 299.337 317.343, 300.100 318.592, 301.347 318.831 C 302.870 319.122, 303.063 318.775, 302.453 316.852 C 302.046 315.570, 301.761 311.710, 301.820 308.276 C 301.943 301.003, 300.944 300, 293.566 300 L 289 300 289 309.500 M 319.558 301.334 C 317.082 303.145, 315.953 310.984, 317.604 314.910 C 319.830 320.204, 327.986 320.250, 330.770 314.983 C 332.703 311.327, 331.713 303.996, 328.988 301.789 C 326.375 299.673, 322.111 299.467, 319.558 301.334 M 345.648 300.761 C 345.353 301.238, 345.218 304.911, 345.347 308.924 C 345.535 314.765, 345.961 316.498, 347.482 317.611 C 350.302 319.673, 355.659 319.341, 358.043 316.957 C 359.786 315.214, 360.043 313.867, 359.793 307.787 C 359.604 303.195, 359.055 300.513, 358.250 300.247 C 357.331 299.943, 357 301.656, 357 306.717 C 357 314.084, 356.037 316, 352.335 316 C 349.178 316, 347.816 312.848, 348.121 306.249 C 348.280 302.831, 347.951 300.484, 347.283 300.261 C 346.678 300.059, 345.942 300.284, 345.648 300.761 M 374.424 301.338 C 374.141 302.075, 374.043 306.201, 374.205 310.508 C 374.399 315.663, 374.927 318.481, 375.750 318.753 C 376.594 319.032, 377 318.004, 377 315.583 C 377 312.201, 377.184 312, 380.277 312 C 384.845 312, 388 309.549, 388 306 C 388 304.151, 387.201 302.554, 385.777 301.557 C 383.012 299.620, 375.141 299.468, 374.424 301.338 M 218 306 C 218 308.228, 218.466 309, 219.809 309 C 220.804 309, 222.452 308.390, 223.471 307.645 C 226.165 305.675, 224.760 303, 221.031 303 C 218.330 303, 218 303.326, 218 306 M 292 305.378 C 292 308.457, 293.344 309.382, 296.622 308.559 C 298.502 308.087, 299.051 307.375, 298.815 305.715 C 298.575 304.029, 297.724 303.425, 295.250 303.187 C 292.365 302.908, 292 303.155, 292 305.378 M 321.182 304.280 C 319.531 306.270, 319.143 310.075, 320.262 313.305 C 321.084 315.678, 321.711 316.062, 324.335 315.805 C 326.844 315.558, 327.608 314.901, 328.329 312.368 C 330 306.503, 324.502 300.281, 321.182 304.280 M 377 306 C 377 308.995, 377.151 309.108, 380.750 308.810 C 384.001 308.541, 384.500 308.167, 384.500 306 C 384.500 303.833, 384.001 303.459, 380.750 303.190 C 377.151 302.892, 377 303.005, 377 306 M 37.660 307.136 C 36.658 310.879, 36.867 311.571, 38.999 311.571 C 40.547 311.571, 40.859 311.111, 40.378 309.536 C 39.101 305.343, 38.324 304.657, 37.660 307.136 M 92.192 307.880 C 91.594 309.596, 91.193 311.033, 91.302 311.074 C 92.415 311.492, 96 311.900, 96 311.609 C 96 311.400, 95.388 309.774, 94.640 307.995 L 93.280 304.759 92.192 307.880" stroke="none" fill="#F0331E" fill-rule="evenodd"/>
  <path d="M 363.180 245.626 C 361.353 246.556, 358.746 248.778, 357.385 250.562 C 354.903 253.816, 354.561 257.135, 354.939 274.289 C 354.978 276.097, 356.381 278.558, 358.928 281.289 L 362.856 285.500 371.178 285.500 C 378.443 285.500, 379.913 285.190, 382.750 283.062 C 385.960 280.654, 386 280.523, 386 272.312 L 386 264 378.500 264 L 371 264 371 267.500 C 371 270.917, 371.095 271, 375 271 C 378.767 271, 379 271.173, 379 273.965 C 379 277.590, 376.346 279.254, 370.688 279.176 C 364.040 279.085, 362.565 276.725, 362.155 265.523 C 361.826 256.534, 361.928 255.981, 364.360 253.549 C 365.762 252.147, 368.033 251, 369.407 251 C 373.281 251, 376.988 253.106, 377.632 255.671 C 378.101 257.537, 378.891 258, 381.608 258 C 384.361 258, 385 257.614, 385 255.950 C 385 253.177, 382.660 248.922, 379.829 246.546 C 376.622 243.855, 367.629 243.358, 363.180 245.626 M 297.675 258.250 C 297.884 274.051, 297.470 276.646, 294.425 278.641 C 292.433 279.947, 291.712 279.968, 289.303 278.796 C 287.430 277.884, 286.526 276.697, 286.579 275.216 C 286.648 273.297, 286.141 273, 282.798 273 C 278.052 273, 277.246 274.609, 279.555 279.474 C 281.749 284.098, 285.497 286, 292.417 286 C 297.398 286, 298.276 285.657, 301.467 282.467 L 305 278.933 305 261.967 L 305 245 301.250 245 L 297.500 245 297.675 258.250 M 314 259.532 C 314 275.356, 314.773 278.683, 319.452 283 C 321.885 285.245, 323.001 285.500, 330.397 285.500 C 338.259 285.500, 338.759 285.364, 341.427 282.500 C 342.964 280.850, 344.622 278.458, 345.111 277.185 C 345.600 275.912, 346 268.149, 346 259.935 L 346 245 342.500 245 L 339 245 339 258.351 C 339 274.609, 338.161 277.585, 333.194 278.957 C 330.303 279.755, 328.851 279.607, 326.034 278.229 L 322.500 276.500 322.225 260.750 L 321.949 245 317.975 245 L 314 245 314 259.532" stroke="none" fill="#F5F1EA" fill-rule="evenodd"/>
</svg>
