<?xml version="1.0" encoding="utf-8"?>
<svg version="1.0" id="Layer_1" xmlns="http://www.w3.org/2000/svg" xmlns:xlink="http://www.w3.org/1999/xlink" x="0px" y="0px"
	 viewBox="0 0 452.2 107.3" style="enable-background:new 0 0 452.2 107.3;" xml:space="preserve">
<style type="text/css">
	.st0{fill:#C1C1C1;}
	.st1{fill:#326CE5;}
</style>
<g id="XMLID_3_">
	<g id="XMLID_16_">
		<path id="XMLID_17_" class="st0" d="M403.4,107.3v-8.6h6.8c9.4,0,11.2-2.2,11.2-13.1V69c0-8.7,6.6-14.6,19.3-14.8v-1
			c-12.7-0.3-19.3-6.1-19.3-14.9V21.6c0-10.9-1.8-13.1-11.2-13.1h-6.8V0h8.5c15.2,0,20,4.8,20,20.3v14c0,9.7,5.6,15.3,20.3,13.8
			v11.3c-14.6-1.5-20.3,4.1-20.3,13.7v14c0,15.4-4.8,20.3-20,20.3H403.4z"/>
	</g>
	<g id="XMLID_4_">
		<path id="XMLID_5_" class="st0" d="M40.3,107.3c-15.2,0-20-4.8-20-20.3v-14c0-9.6-5.6-15.3-20.3-13.8V48
			c14.6,1.5,20.3-4.1,20.3-13.8v-14C20.3,4.8,25.1,0,40.3,0h8.5v8.6h-6.8c-9.4,0-11.2,2.2-11.2,13.1v16.7c0,8.8-6.6,14.6-19.3,14.9
			v1c12.7,0.3,19.3,6.1,19.3,14.8v16.7c0,10.9,1.8,13.1,11.2,13.1h6.8v8.6H40.3z"/>
	</g>
	<g id="XMLID_1_">
		<g id="XMLID_2_">
			<path id="XMLID_7_" class="st1" d="M184,87.5V59.6l-22.5-39.8h9.2l17.1,30.9h0.7l17.1-30.9h9.2l-22.5,39.8v27.9H184z"/>
			<path id="XMLID_9_" class="st1" d="M259.1,68.1h-23.5l-5.9,19.4h-8.4l21.8-67.6h8.8l21.8,67.6H265L259.1,68.1z M256.9,61
				l-9.5-31.2h-0.2L237.7,61H256.9z"/>
			<path id="XMLID_12_" class="st1" d="M287.3,87.5V19.8h8.1v33.7h0.6l27.4-33.7h9.7l-25,29.9l27.5,37.7h-10.3l-22.8-31.4l-7,8.3v23
				H287.3z"/>
			<path id="XMLID_14_" class="st1" fill-rule="evenodd" d="M342.6,87.5V19.8H367C380.3,19.8 391,34.95 391,53.65C391,72.35 380.3,87.5 367,87.5Z
				M350.7,79.4V27.9H367C375.78,27.9 382.9,39.43 382.9,53.65C382.9,67.87 375.78,79.4 367,79.4Z"/>
		</g>
		<path id="XMLID_54_" class="st1" d="M151.9,63.6L151.9,63.6L151.9,63.6C151.8,63.6,151.8,63.6,151.9,63.6L151.9,63.6
			c-0.2,0-0.3,0-0.3-0.1c-0.2,0-0.4-0.1-0.5-0.1c-0.6-0.1-1.1-0.2-1.7-0.2c-0.3,0-0.5,0-0.9-0.1h-0.1c-1.8-0.2-3.3-0.4-4.7-0.8
			c-0.6-0.3-0.8-0.6-1-1c0-0.1-0.1-0.1-0.1-0.2l0,0l-1.1-0.4c0.5-4,0.4-8.2-0.6-12.4s-2.6-8-4.9-11.5l0.9-0.8v-0.2
			c0-0.4,0.1-0.9,0.4-1.3c1.1-1,2.4-1.8,3.9-2.7l0,0c0.3-0.2,0.5-0.3,0.8-0.4c0.5-0.3,1-0.5,1.5-0.9c0.1-0.1,0.3-0.2,0.4-0.4
			c0.1-0.1,0.2-0.1,0.2-0.2l0,0c1.2-1.1,1.5-2.8,0.6-3.9c-0.4-0.6-1.2-1-2-1c-0.7,0-1.3,0.3-1.9,0.7l0,0l0,0
			c-0.1,0.1-0.1,0.1-0.2,0.2c-0.2,0.1-0.3,0.3-0.4,0.4c-0.4,0.4-0.8,0.8-1.1,1.2c-0.2,0.2-0.4,0.4-0.6,0.6l0,0
			c-1.2,1.3-2.4,2.4-3.5,3.2c-0.3,0.2-0.5,0.3-0.8,0.3c-0.2,0-0.4,0-0.5-0.1h-0.2l0,0l-1.1,0.7c-1.1-1.2-2.4-2.3-3.6-3.3
			c-5.3-4.1-11.6-6.7-18.3-7.3l-0.1-1.1c-0.1-0.1-0.1-0.1-0.2-0.2c-0.3-0.3-0.6-0.5-0.7-1.1c-0.1-1.4,0.1-3,0.3-4.7v-0.1
			c0-0.3,0.1-0.6,0.2-0.9c0.1-0.5,0.2-1.1,0.3-1.7v-0.5v-0.3l0,0l0,0c0-1.6-1.2-2.9-2.7-2.9c-0.7,0-1.4,0.4-1.9,0.9
			c-0.5,0.5-0.8,1.2-0.8,2l0,0l0,0v0.2v0.5c0,0.6,0.1,1.1,0.3,1.7c0.1,0.3,0.1,0.5,0.2,0.9v0.1c0.2,1.8,0.4,3.3,0.3,4.7
			c-0.1,0.6-0.4,0.9-0.7,1.1c-0.1,0.1-0.1,0.1-0.2,0.2l0,0l-0.1,1.1c-1.6,0.2-3.2,0.4-4.7,0.7c-6.7,1.5-12.7,4.9-17.3,9.8l-0.9-0.6
			h-0.2c-0.2,0-0.4,0.1-0.5,0.1c-0.3,0-0.5-0.1-0.8-0.3c-1.1-0.8-2.3-1.9-3.5-3.2l0,0c-0.2-0.2-0.4-0.4-0.6-0.6
			c-0.4-0.4-0.7-0.8-1.1-1.2c-0.1-0.1-0.3-0.2-0.4-0.4c-0.1-0.1-0.2-0.1-0.2-0.2l0,0c-0.5-0.4-1.2-0.7-1.9-0.7c-0.8,0-1.6,0.4-2,1
			C69.5,27.2,69.7,29,71,30l0,0l0,0c0.1,0,0.1,0.1,0.2,0.1c0.2,0.1,0.3,0.3,0.4,0.4c0.5,0.4,1,0.6,1.5,0.9c0.3,0.1,0.5,0.3,0.8,0.4
			l0,0c1.6,1,2.9,1.8,3.9,2.7c0.4,0.4,0.4,0.9,0.4,1.3V36l0,0l0.9,0.8c-0.2,0.3-0.4,0.4-0.4,0.7c-4.4,6.9-6,15.1-4.9,23.1l-1.1,0.4
			c0,0.1-0.1,0.1-0.1,0.2c-0.2,0.4-0.4,0.7-1,1c-1.3,0.4-2.9,0.6-4.7,0.8h-0.1c-0.3,0-0.6,0-0.9,0.1c-0.5,0-1.1,0.1-1.7,0.2
			c-0.2,0-0.4,0.1-0.5,0.1c-0.1,0-0.2,0-0.3,0.1l0,0l0,0c-1.6,0.4-2.5,1.8-2.3,3.2c0.3,1.2,1.4,2,2.8,2c0.3,0,0.4,0,0.7-0.1l0,0l0,0
			c0.1,0,0.2,0,0.2-0.1c0.2,0,0.4-0.1,0.5-0.1c0.6-0.2,1.1-0.4,1.6-0.6c0.3-0.1,0.5-0.3,0.8-0.4h0.1c1.7-0.6,3.2-1.1,4.6-1.3h0.2
			c0.5,0,0.9,0.3,1.1,0.4c0.1,0,0.1,0.1,0.2,0.1l0,0l1.2-0.2c2.1,6.5,6.1,12.3,11.5,16.5c1.2,1,2.5,1.8,3.8,2.5l-0.5,1.1
			c0,0.1,0.1,0.1,0.1,0.2c0.2,0.4,0.4,0.8,0.2,1.4c-0.5,1.3-1.3,2.6-2.3,4.1v0.1c-0.2,0.3-0.4,0.4-0.5,0.7c-0.4,0.4-0.6,0.9-1,1.4
			c-0.1,0.1-0.2,0.3-0.3,0.4c0,0.1-0.1,0.2-0.1,0.2l0,0l0,0c-0.7,1.5-0.2,3.2,1.1,3.8c0.4,0.2,0.7,0.3,1.1,0.3
			c1.1,0,2.1-0.7,2.6-1.7l0,0l0,0c0-0.1,0.1-0.2,0.1-0.2c0.1-0.2,0.2-0.4,0.3-0.4c0.3-0.6,0.4-1.1,0.5-1.6c0.1-0.3,0.2-0.5,0.3-0.8
			l0,0c0.6-1.8,1.1-3.2,1.8-4.4c0.4-0.5,0.8-0.6,1.1-0.8c0.1,0,0.1,0,0.2-0.1l0,0l0.6-1.1c3.9,1.5,8.1,2.3,12.3,2.3
			c2.5,0,5.2-0.3,7.6-0.9c1.6-0.4,3.1-0.8,4.6-1.3l0.5,1c0.1,0,0.1,0,0.2,0.1c0.4,0.1,0.8,0.3,1.1,0.8c0.7,1.2,1.2,2.7,1.8,4.4v0.1
			c0.1,0.3,0.2,0.5,0.3,0.8c0.2,0.5,0.3,1.1,0.5,1.6c0.1,0.2,0.2,0.3,0.3,0.4c0,0.1,0.1,0.2,0.1,0.2l0,0l0,0
			c0.5,1.1,1.6,1.7,2.6,1.7c0.4,0,0.7-0.1,1.1-0.3c0.6-0.4,1.1-0.9,1.3-1.6c0.2-0.7,0.2-1.5-0.2-2.2l0,0l0,0c0-0.1-0.1-0.1-0.1-0.2
			c-0.1-0.2-0.2-0.4-0.3-0.4c-0.3-0.5-0.6-1-1-1.4c-0.2-0.3-0.4-0.4-0.5-0.7v-0.1c-1-1.5-1.8-2.8-2.3-4.1c-0.2-0.6,0-1,0.1-1.4
			c0-0.1,0.1-0.1,0.1-0.2l0,0l-0.4-1.1c4.6-2.7,8.6-6.6,11.6-11.3c1.6-2.5,2.8-5.2,3.7-7.9l1.1,0.2c0.1,0,0.1-0.1,0.2-0.1
			c0.4-0.2,0.6-0.4,1.1-0.4h0.2c1.4,0.2,2.9,0.7,4.6,1.3h0.1c0.3,0.1,0.5,0.3,0.8,0.4c0.5,0.3,1,0.4,1.6,0.6c0.2,0,0.4,0.1,0.5,0.1
			c0.1,0,0.2,0,0.3,0.1l0,0c0.3,0.1,0.4,0.1,0.7,0.1c1.3,0,2.5-0.9,2.8-2C154.4,65.4,153.5,64,151.9,63.6L151.9,63.6z M111.4,59.3
			l-3.9,1.8l-3.9-1.8l-1-4.1l2.6-3.3h4.3l2.6,3.3L111.4,59.3L111.4,59.3z M134.2,50.2c0.7,3,0.9,6,0.6,8.8l-13.4-3.9
			c-1.2-0.4-1.9-1.6-1.7-2.8c0.1-0.4,0.3-0.7,0.5-1l10.6-9.5C132.4,44.3,133.5,47.1,134.2,50.2L134.2,50.2z M126.7,36.6l-11.5,8.1
			c-1,0.6-2.3,0.4-3.1-0.5c-0.3-0.3-0.4-0.6-0.4-1L110.9,29C117,29.7,122.5,32.4,126.7,36.6L126.7,36.6z M101.3,29.4
			c1-0.2,1.8-0.4,2.8-0.5l-0.8,14c-0.1,1.2-1.1,2.3-2.4,2.3c-0.4,0-0.8-0.1-1.1-0.3l-11.6-8.3C91.8,33,96.3,30.5,101.3,29.4
			L101.3,29.4z M84,41.8l10.4,9.3c1,0.8,1.1,2.3,0.3,3.2c-0.3,0.4-0.6,0.6-1.1,0.7L80.1,59C79.6,53,80.9,47,84,41.8L84,41.8z
			 M81.7,65.6l13.9-2.4c1.1-0.1,2.2,0.7,2.5,1.8c0.1,0.5,0.1,1-0.1,1.4l0,0l-5.3,12.9C87.7,76.2,83.8,71.3,81.7,65.6L81.7,65.6z
			 M113.6,83c-2,0.4-4,0.7-6.1,0.7c-3.1,0-6-0.5-8.8-1.4l6.9-12.5c0.7-0.8,1.8-1.1,2.8-0.6c0.4,0.3,0.8,0.6,1.1,1l0,0l6.7,12.2
			C115.4,82.6,114.5,82.7,113.6,83L113.6,83z M130.7,70.8c-2.2,3.5-5.1,6.3-8.4,8.5l-5.5-13.2c-0.3-1.1,0.2-2.2,1.2-2.7
			c0.4-0.2,0.8-0.3,1.2-0.3l14,2.4C132.7,67.4,131.8,69.2,130.7,70.8L130.7,70.8z"/>
	</g>
</g>
</svg>
