<svg xmlns="http://www.w3.org/2000/svg" viewBox="0 0 128 128" role="img" aria-label="Valencia JUG">
  <defs>
    <radialGradient id="fnose" cx="0.38" cy="0.34" r="0.75">
      <stop offset="0" stop-color="#FF8A6E"/><stop offset="0.45" stop-color="#F44A2A"/><stop offset="1" stop-color="#C32A18"/>
    </radialGradient>
  </defs>
  <rect x="0" y="0" width="128" height="128" rx="26" fill="#0E0D13"/>
  <g transform="translate(4.00 19.90) scale(0.3)">
    <path d="M 62 74.642 C 56.622 75.252, 44.998 78.137, 45.014 78.858 C 45.022 79.211, 47.173 80.682, 49.793 82.126 C 57.356 86.295, 69.523 96.454, 73.908 102.261 C 81.988 112.964, 84.446 122.515, 81.620 132.237 C 80.729 135.301, 80 138.076, 80 138.404 C 80 138.732, 82.138 139.011, 84.750 139.024 C 100.232 139.104, 116.061 148.738, 122.798 162.182 C 126.089 168.749, 129 178.529, 129 183.019 C 129 187.146, 130.960 188.535, 139.500 190.459 C 161.301 195.373, 184.986 208.092, 192.734 219.046 C 194.255 221.197, 195.767 222.967, 196.093 222.979 C 196.420 222.990, 198.576 220.759, 200.886 218.020 C 211.369 205.588, 229.730 196.381, 258.750 189.003 C 261.087 188.409, 263.016 187.378, 263.035 186.711 C 263.184 181.549, 266.297 169.355, 268.837 163.989 C 275.834 149.207, 291.915 139, 308.210 139 C 310.845 139, 313 138.855, 313 138.678 C 313 138.501, 312.274 136.226, 311.387 133.623 C 307.324 121.699, 311.582 109.240, 323.920 96.949 C 330.425 90.469, 334.447 87.382, 345.611 80.302 C 347.198 79.295, 347.271 78.948, 346.069 78.131 C 343.291 76.243, 331.386 74.548, 322 74.705 C 299.009 75.088, 268.965 86.076, 241.250 104.238 C 235.613 107.932, 231 110.765, 231 110.533 C 231 110.302, 232.776 103.237, 234.946 94.835 C 237.116 86.433, 238.738 79.404, 238.549 79.216 C 238.361 79.028, 234.673 80.649, 230.353 82.818 C 206.205 94.947, 188.572 94.967, 163.278 82.894 C 158.622 80.672, 154.656 79.011, 154.465 79.202 C 154.273 79.394, 155.730 86.187, 157.703 94.297 C 159.675 102.408, 161.043 109.290, 160.743 109.591 C 160.442 109.891, 158.014 108.585, 155.348 106.688 C 142.992 97.898, 119.552 86.088, 104.081 80.858 C 90.842 76.383, 71.650 73.548, 62 74.642" stroke="none" fill="#C0B9AF" fill-rule="evenodd"/>
    <ellipse cx="183" cy="125" rx="10" ry="14.5" fill="#FFFFFF"/>
    <ellipse cx="208" cy="125" rx="10" ry="14.5" fill="#FFFFFF"/>
    <ellipse cx="183" cy="126" rx="6" ry="10.5" fill="#26262A"/>
    <ellipse cx="208" cy="126" rx="6" ry="10.5" fill="#26262A"/>
    <circle cx="197" cy="150" r="13" fill="url(#fnose)"/>
  </g>
</svg>
