<svg xmlns="http://www.w3.org/2000/svg" viewBox="0 66 400 262" role="img" aria-label="Valencia JUG — Java User Group">
  <defs>
    <radialGradient id="nose" cx="0.38" cy="0.34" r="0.75">
      <stop offset="0" stop-color="#FF8A6E"/>
      <stop offset="0.45" stop-color="#F44A2A"/>
      <stop offset="1" stop-color="#C32A18"/>
    </radialGradient>
  </defs>
  <path d="M 62 74.642 C 56.622 75.252, 44.998 78.137, 45.014 78.858 C 45.022 79.211, 47.173 80.682, 49.793 82.126 C 57.356 86.295, 69.523 96.454, 73.908 102.261 C 81.988 112.964, 84.446 122.515, 81.620 132.237 C 80.729 135.301, 80 138.076, 80 138.404 C 80 138.732, 82.138 139.011, 84.750 139.024 C 100.232 139.104, 116.061 148.738, 122.798 162.182 C 126.089 168.749, 129 178.529, 129 183.019 C 129 187.146, 130.960 188.535, 139.500 190.459 C 161.301 195.373, 184.986 208.092, 192.734 219.046 C 194.255 221.197, 195.767 222.967, 196.093 222.979 C 196.420 222.990, 198.576 220.759, 200.886 218.020 C 211.369 205.588, 229.730 196.381, 258.750 189.003 C 261.087 188.409, 263.016 187.378, 263.035 186.711 C 263.184 181.549, 266.297 169.355, 268.837 163.989 C 275.834 149.207, 291.915 139, 308.210 139 C 310.845 139, 313 138.855, 313 138.678 C 313 138.501, 312.274 136.226, 311.387 133.623 C 307.324 121.699, 311.582 109.240, 323.920 96.949 C 330.425 90.469, 334.447 87.382, 345.611 80.302 C 347.198 79.295, 347.271 78.948, 346.069 78.131 C 343.291 76.243, 331.386 74.548, 322 74.705 C 299.009 75.088, 268.965 86.076, 241.250 104.238 C 235.613 107.932, 231 110.765, 231 110.533 C 231 110.302, 232.776 103.237, 234.946 94.835 C 237.116 86.433, 238.738 79.404, 238.549 79.216 C 238.361 79.028, 234.673 80.649, 230.353 82.818 C 206.205 94.947, 188.572 94.967, 163.278 82.894 C 158.622 80.672, 154.656 79.011, 154.465 79.202 C 154.273 79.394, 155.730 86.187, 157.703 94.297 C 159.675 102.408, 161.043 109.290, 160.743 109.591 C 160.442 109.891, 158.014 108.585, 155.348 106.688 C 142.992 97.898, 119.552 86.088, 104.081 80.858 C 90.842 76.383, 71.650 73.548, 62 74.642" stroke="none" fill="#C0B9AF" fill-rule="evenodd"/>
  <g id="eyes">
    <ellipse cx="183" cy="125" rx="10" ry="14.5" fill="#FFFFFF"/>
    <ellipse cx="208" cy="125" rx="10" ry="14.5" fill="#FFFFFF"/>
    <ellipse cx="183" cy="126" rx="6" ry="10.5" fill="#26262A"/>
    <ellipse cx="208" cy="126" rx="6" ry="10.5" fill="#26262A"/>
    <circle cx="180" cy="120" r="2.2" fill="#FFFFFF"/>
    <circle cx="205" cy="120" r="2.2" fill="#FFFFFF"/>
  </g>
  <circle cx="197" cy="150" r="13" fill="url(#nose)"/>
  <path d="M27.487967257844474 285L18.657967257844476 285L3.997967257844475 244L12.977967257844474 244L23.35796725784447 274.34L33.39796725784448 244L42.17796725784447 244L27.487967257844474 285Z M63.727967257844476 244L80.14796725784448 285L71.13796725784448 285L67.55796725784448 275.69L51.17796725784447 275.69L47.78796725784447 285L39.00796725784447 285L54.977967257844476 244L63.727967257844476 244ZM53.71796725784447 268.78L64.90796725784448 268.78L59.25796725784447 253.56L53.71796725784447 268.78Z M110.39796725784448 285L81.53796725784449 285L81.53796725784449 244.34L89.81796725784449 244.34L89.81796725784449 278.09L110.39796725784448 278.09L110.39796725784448 285Z M144.25796725784446 285L113.07796725784448 285L113.07796725784448 244L143.47796725784445 244L143.47796725784445 250.94L121.35796725784448 250.94L121.35796725784448 260.03L141.93796725784446 260.03L141.93796725784446 266.93L121.35796725784448 266.93L121.35796725784448 278.09L144.25796725784446 278.09L144.25796725784446 285Z M155.82796725784448 285L148.13796725784448 285L148.13796725784448 244L156.19796725784445 244L172.97796725784445 271.38L172.97796725784445 244L180.66796725784445 244L180.66796725784445 285L172.35796725784448 285L155.82796725784448 258.26L155.82796725784448 285Z M212.42796725784447 269.93L212.42796725784447 269.93L220.45796725784447 272.47Q218.60796725784448 279.18 214.31796725784446 282.44Q210.02796725784447 285.7 203.42796725784447 285.7L203.42796725784447 285.7Q195.25796725784446 285.7 189.99796725784446 280.12Q184.74796725784446 274.54 184.74796725784446 264.86L184.74796725784446 264.86Q184.74796725784446 254.63 190.02796725784447 248.96Q195.31796725784446 243.3 203.92796725784447 243.3L203.92796725784447 243.3Q211.44796725784445 243.3 216.14796725784447 247.75L216.14796725784447 247.75Q218.94796725784445 250.38 220.34796725784446 255.3L220.34796725784446 255.3L212.14796725784447 257.26Q211.42796725784447 254.07 209.11796725784447 252.22Q206.80796725784447 250.38 203.50796725784446 250.38L203.50796725784446 250.38Q198.94796725784445 250.38 196.10796725784448 253.65Q193.27796725784447 256.92 193.27796725784447 264.25L193.27796725784447 264.25Q193.27796725784447 272.02 196.06796725784446 275.32Q198.86796725784447 278.62 203.33796725784447 278.62L203.33796725784447 278.62Q206.63796725784448 278.62 209.01796725784448 276.53Q211.39796725784447 274.43 212.42796725784447 269.93Z M232.36796725784447 285L224.08796725784447 285L224.08796725784447 244L232.36796725784447 244L232.36796725784447 285Z M257.58796725784447 244L273.9979672578445 285L264.9979672578445 285L261.41796725784445 275.69L245.02796725784447 275.69L241.63796725784448 285L232.85796725784448 285L248.82796725784448 244L257.58796725784447 244ZM247.56796725784446 268.78L258.7579672578445 268.78L253.10796725784448 253.56L247.56796725784446 268.78Z M5.995579809004092 312.89L5.995579809004092 312.89L8.145579809004094 312.6Q8.235579809004093 314.66 8.925579809004093 315.42Q9.605579809004093 316.18 10.825579809004093 316.18L10.825579809004093 316.18Q11.725579809004092 316.18 12.375579809004092 315.77Q13.025579809004093 315.36 13.265579809004093 314.65Q13.515579809004093 313.95 13.515579809004093 312.4L13.515579809004093 312.4L13.515579809004093 300L15.895579809004092 300L15.895579809004092 312.27Q15.895579809004092 314.53 15.345579809004093 315.77Q14.805579809004092 317.01 13.615579809004092 317.66Q12.435579809004093 318.31 10.835579809004091 318.31L10.835579809004091 318.31Q8.465579809004092 318.31 7.205579809004092 316.94Q5.955579809004092 315.58 5.995579809004092 312.89Z M30.615579809004092 318L28.08557980900409 318L35.00557980900409 300L37.56557980900409 300L44.93557980900409 318L42.225579809004095 318L40.125579809004094 312.55L32.59557980900409 312.55L30.615579809004092 318ZM35.25557980900409 305.33L33.28557980900409 310.61L39.38557980900409 310.61L37.50557980900409 305.62Q36.64557980900409 303.35 36.22557980900409 301.89L36.22557980900409 301.89Q35.88557980900409 303.62 35.25557980900409 305.33L35.25557980900409 305.33Z M64.70557980900409 318L62.25557980900409 318L55.28557980900409 300L57.865579809004096 300L62.545579809004096 313.08Q63.10557980900409 314.65 63.48557980900409 316.02L63.48557980900409 316.02Q63.905579809004095 314.55 64.45557980900409 313.08L64.45557980900409 313.08L69.3155798090041 300L71.7555798090041 300L64.70557980900409 318Z M84.71557980900408 318L82.18557980900408 318L89.09557980900408 300L91.6655798090041 300L99.0355798090041 318L96.3155798090041 318L94.21557980900408 312.55L86.6955798090041 312.55L84.71557980900408 318ZM89.3555798090041 305.33L87.3855798090041 310.61L93.4855798090041 310.61L91.6055798090041 305.62Q90.74557980900408 303.35 90.3255798090041 301.89L90.3255798090041 301.89Q89.9855798090041 303.62 89.3555798090041 305.33L89.3555798090041 305.33Z M140.28557980900408 310.39L140.28557980900408 300L142.6755798090041 300L142.6755798090041 310.4Q142.6755798090041 313.11 142.0555798090041 314.71Q141.44557980900407 316.31 139.84557980900408 317.31Q138.2355798090041 318.31 135.6355798090041 318.31L135.6355798090041 318.31Q133.1055798090041 318.31 131.49557980900408 317.44Q129.8855798090041 316.56 129.2055798090041 314.91Q128.5155798090041 313.26 128.5155798090041 310.4L128.5155798090041 310.4L128.5155798090041 300L130.8955798090041 300L130.8955798090041 310.39Q130.8955798090041 312.73 131.3355798090041 313.84Q131.7655798090041 314.95 132.8255798090041 315.56Q133.8955798090041 316.16 135.4255798090041 316.16L135.4255798090041 316.16Q138.0555798090041 316.16 139.1755798090041 314.97Q140.28557980900408 313.78 140.28557980900408 310.39L140.28557980900408 310.39Z M156.1055798090041 312.22L156.1055798090041 312.22L158.3555798090041 312.02Q158.5155798090041 313.37 159.09557980900408 314.24Q159.6755798090041 315.1 160.90557980900408 315.64Q162.1355798090041 316.17 163.66557980900407 316.17L163.66557980900407 316.17Q165.02557980900409 316.17 166.0755798090041 315.77Q167.1155798090041 315.36 167.62557980900408 314.65Q168.1355798090041 313.95 168.1355798090041 313.11L168.1355798090041 313.11Q168.1355798090041 312.27 167.6455798090041 311.63Q167.15557980900408 311 166.02557980900409 310.57L166.02557980900409 310.57Q165.2955798090041 310.29 162.81557980900408 309.69Q160.3355798090041 309.1 159.34557980900408 308.57L159.34557980900408 308.57Q158.0555798090041 307.89 157.4255798090041 306.89Q156.7955798090041 305.89 156.7955798090041 304.65L156.7955798090041 304.65Q156.7955798090041 303.29 157.56557980900408 302.11Q158.3355798090041 300.92 159.8255798090041 300.31Q161.3055798090041 299.69 163.12557980900408 299.69L163.12557980900408 299.69Q165.12557980900408 299.69 166.65557980900408 300.34Q168.18557980900408 300.98 169.00557980900408 302.23Q169.8355798090041 303.49 169.8955798090041 305.07L169.8955798090041 305.07L167.6055798090041 305.24Q167.4255798090041 303.54 166.3655798090041 302.66Q165.2955798090041 301.79 163.22557980900407 301.79L163.22557980900407 301.79Q161.06557980900408 301.79 160.0755798090041 302.58Q159.0855798090041 303.38 159.0855798090041 304.49L159.0855798090041 304.49Q159.0855798090041 305.46 159.78557980900408 306.09L159.78557980900408 306.09Q160.47557980900407 306.72 163.37557980900408 307.37Q166.28557980900408 308.03 167.3655798090041 308.52L167.3655798090041 308.52Q168.93557980900408 309.25 169.68557980900408 310.36Q170.43557980900408 311.47 170.43557980900408 312.92L170.43557980900408 312.92Q170.43557980900408 314.35 169.6055798090041 315.62Q168.78557980900408 316.89 167.24557980900408 317.6Q165.7055798090041 318.31 163.77557980900409 318.31L163.77557980900409 318.31Q161.3355798090041 318.31 159.68557980900408 317.59Q158.03557980900408 316.88 157.09557980900408 315.45Q156.15557980900408 314.02 156.1055798090041 312.22Z M197.44557980900407 318L184.0155798090041 318L184.0155798090041 300L197.02557980900409 300L197.02557980900409 302.12L186.3955798090041 302.12L186.3955798090041 307.64L196.3555798090041 307.64L196.3555798090041 309.75L186.3955798090041 309.75L186.3955798090041 315.88L197.44557980900407 315.88L197.44557980900407 318Z M213.43557980900408 318L211.0455798090041 318L211.0455798090041 300L219.03557980900408 300Q221.43557980900408 300 222.68557980900408 300.48Q223.94557980900407 300.97 224.69557980900407 302.2Q225.43557980900408 303.43 225.43557980900408 304.91L225.43557980900408 304.91Q225.43557980900408 306.83 224.19557980900407 308.14Q222.9555798090041 309.45 220.3655798090041 309.81L220.3655798090041 309.81Q221.31557980900408 310.26 221.8055798090041 310.71L221.8055798090041 310.71Q222.84557980900408 311.66 223.78557980900408 313.1L223.78557980900408 313.1L226.91557980900407 318L223.91557980900407 318L221.53557980900408 314.26Q220.49557980900408 312.63 219.81557980900408 311.77Q219.1455798090041 310.92 218.6055798090041 310.57Q218.0755798090041 310.23 217.52557980900409 310.09L217.52557980900409 310.09Q217.1155798090041 310.01 216.19557980900407 310.01L216.19557980900407 310.01L213.43557980900408 310.01L213.43557980900408 318ZM213.43557980900408 301.99L213.43557980900408 307.94L218.5555798090041 307.94Q220.18557980900408 307.94 221.1055798090041 307.61Q222.02557980900409 307.27 222.50557980900408 306.53Q222.9855798090041 305.78 222.9855798090041 304.91L222.9855798090041 304.91Q222.9855798090041 303.63 222.0555798090041 302.81Q221.12557980900408 301.99 219.12557980900408 301.99L219.12557980900408 301.99L213.43557980900408 301.99Z M270.4255798090041 310.94L265.1355798090041 310.94L265.1355798090041 308.83L272.7655798090041 308.82L272.7655798090041 315.5Q271.00557980900413 316.89 269.1355798090041 317.6Q267.2755798090041 318.31 265.3055798090041 318.31L265.3055798090041 318.31Q262.6555798090041 318.31 260.4855798090041 317.17Q258.3255798090041 316.04 257.2155798090041 313.89Q256.1155798090041 311.74 256.1155798090041 309.09L256.1155798090041 309.09Q256.1155798090041 306.46 257.2155798090041 304.18Q258.3055798090041 301.9 260.3755798090041 300.8Q262.43557980900414 299.69 265.12557980900414 299.69L265.12557980900414 299.69Q267.0755798090041 299.69 268.6555798090041 300.33Q270.2355798090041 300.96 271.12557980900414 302.09Q272.0255798090041 303.22 272.49557980900414 305.03L272.49557980900414 305.03L270.3455798090041 305.62Q269.93557980900414 304.25 269.3355798090041 303.46Q268.7355798090041 302.68 267.6155798090041 302.2Q266.49557980900414 301.73 265.1355798090041 301.73L265.1355798090041 301.73Q263.50557980900413 301.73 262.31557980900413 302.23Q261.1255798090041 302.73 260.3955798090041 303.54Q259.6555798090041 304.35 259.2555798090041 305.32L259.2555798090041 305.32Q258.5655798090041 306.99 258.5655798090041 308.94L258.5655798090041 308.94Q258.5655798090041 311.35 259.3955798090041 312.97Q260.2255798090041 314.59 261.8055798090041 315.37Q263.3955798090041 316.16 265.1755798090041 316.16L265.1755798090041 316.16Q266.7155798090041 316.16 268.19557980900413 315.56Q269.6655798090041 314.97 270.4255798090041 314.29L270.4255798090041 314.29L270.4255798090041 310.94Z M288.9655798090041 318L286.5855798090041 318L286.5855798090041 300L294.56557980900413 300Q296.9755798090041 300 298.2255798090041 300.48Q299.4755798090041 300.97 300.2255798090041 302.2Q300.9755798090041 303.43 300.9755798090041 304.91L300.9755798090041 304.91Q300.9755798090041 306.83 299.7355798090041 308.14Q298.49557980900414 309.45 295.9055798090041 309.81L295.9055798090041 309.81Q296.8555798090041 310.26 297.3455798090041 310.71L297.3455798090041 310.71Q298.3855798090041 311.66 299.31557980900413 313.1L299.31557980900413 313.1L302.4555798090041 318L299.4555798090041 318L297.0755798090041 314.26Q296.0255798090041 312.63 295.3555798090041 311.77Q294.6755798090041 310.92 294.1455798090041 310.57Q293.6055798090041 310.23 293.0555798090041 310.09L293.0555798090041 310.09Q292.6555798090041 310.01 291.7355798090041 310.01L291.7355798090041 310.01L288.9655798090041 310.01L288.9655798090041 318ZM288.9655798090041 301.99L288.9655798090041 307.94L294.0855798090041 307.94Q295.7255798090041 307.94 296.6455798090041 307.61Q297.56557980900413 307.27 298.0455798090041 306.53Q298.5255798090041 305.78 298.5255798090041 304.91L298.5255798090041 304.91Q298.5255798090041 303.63 297.5955798090041 302.81Q296.6655798090041 301.99 294.6655798090041 301.99L294.6655798090041 301.99L288.9655798090041 301.99Z M314.2655798090041 309.23L314.2655798090041 309.23Q314.2655798090041 304.75 316.6655798090041 302.22Q319.0755798090041 299.68 322.8855798090041 299.68L322.8855798090041 299.68Q325.37557980900414 299.68 327.37557980900414 300.87Q329.37557980900414 302.06 330.4255798090041 304.19Q331.4755798090041 306.32 331.4755798090041 309.02L331.4755798090041 309.02Q331.4755798090041 311.76 330.37557980900414 313.92Q329.2655798090041 316.08 327.24557980900414 317.2Q325.2155798090041 318.31 322.8655798090041 318.31L322.8655798090041 318.31Q320.3255798090041 318.31 318.3255798090041 317.08Q316.3255798090041 315.85 315.2955798090041 313.73Q314.2655798090041 311.6 314.2655798090041 309.23ZM316.7155798090041 309.27L316.7155798090041 309.27Q316.7155798090041 312.52 318.4655798090041 314.4Q320.2155798090041 316.27 322.8555798090041 316.27L322.8555798090041 316.27Q325.5455798090041 316.27 327.2855798090041 314.38Q329.0255798090041 312.49 329.0255798090041 309.01L329.0255798090041 309.01Q329.0255798090041 306.81 328.2755798090041 305.18Q327.5355798090041 303.54 326.1055798090041 302.63Q324.6755798090041 301.73 322.8955798090041 301.73L322.8955798090041 301.73Q320.3655798090041 301.73 318.5455798090041 303.47Q316.7155798090041 305.21 316.7155798090041 309.27Z M356.6355798090041 310.39L356.6355798090041 300L359.0155798090041 300L359.0155798090041 310.4Q359.0155798090041 313.11 358.4055798090041 314.71Q357.7855798090041 316.31 356.18557980900414 317.31Q354.5855798090041 318.31 351.9855798090041 318.31L351.9855798090041 318.31Q349.4555798090041 318.31 347.8455798090041 317.44Q346.2355798090041 316.56 345.5455798090041 314.91Q344.8555798090041 313.26 344.8555798090041 310.4L344.8555798090041 310.4L344.8555798090041 300L347.24557980900414 300L347.24557980900414 310.39Q347.24557980900414 312.73 347.6755798090041 313.84Q348.1155798090041 314.95 349.1755798090041 315.56Q350.2355798090041 316.16 351.7755798090041 316.16L351.7755798090041 316.16Q354.4055798090041 316.16 355.5155798090041 314.97Q356.6355798090041 313.78 356.6355798090041 310.39L356.6355798090041 310.39Z M375.6455798090041 318L373.25557980900413 318L373.25557980900413 300L380.0455798090041 300Q381.8455798090041 300 382.7855798090041 300.17L382.7855798090041 300.17Q384.1155798090041 300.39 385.0155798090041 301.01Q385.9055798090041 301.63 386.4555798090041 302.75Q386.99557980900414 303.87 386.99557980900414 305.21L386.99557980900414 305.21Q386.99557980900414 307.5 385.5355798090041 309.09Q384.0755798090041 310.68 380.25557980900413 310.68L380.25557980900413 310.68L375.6455798090041 310.68L375.6455798090041 318ZM375.6455798090041 302.12L375.6455798090041 308.56L380.2955798090041 308.56Q382.6055798090041 308.56 383.5755798090041 307.7Q384.5455798090041 306.84 384.5455798090041 305.28L384.5455798090041 305.28Q384.5455798090041 304.15 383.9755798090041 303.35Q383.4055798090041 302.54 382.4655798090041 302.28L382.4655798090041 302.28Q381.8655798090041 302.12 380.24557980900414 302.12L380.24557980900414 302.12L375.6455798090041 302.12Z" stroke="none" fill="#F0331E" fill-rule="evenodd"/>
  <path d="M295.9811459754434 270.48L295.9811459754434 244L304.2311459754434 244L304.2311459754434 269.95Q304.2311459754434 275.04 303.3411459754434 277.78L303.3411459754434 277.78Q302.1311459754434 281.36 298.9711459754434 283.53Q295.8111459754434 285.7 290.6411459754434 285.7L290.6411459754434 285.7Q284.5711459754434 285.7 281.3011459754434 282.3Q278.0311459754434 278.9 278.0011459754434 272.33L278.0011459754434 272.33L285.8011459754434 271.44Q285.9411459754434 274.96 286.8411459754434 276.41L286.8411459754434 276.41Q288.1811459754434 278.62 290.9211459754434 278.62L290.9211459754434 278.62Q293.6911459754434 278.62 294.8411459754434 277.04Q295.9811459754434 275.46 295.9811459754434 270.48L295.9811459754434 270.48Z M309.8211459754434 265.87L309.8211459754434 244L318.1011459754434 244L318.1011459754434 266.21Q318.1011459754434 271.49 318.4111459754434 273.06L318.4111459754434 273.06Q318.9411459754434 275.58 320.9411459754434 277.1Q322.9411459754434 278.62 326.4111459754434 278.62L326.4111459754434 278.62Q329.9311459754434 278.62 331.7211459754434 277.18Q333.5111459754434 275.74 333.8811459754434 273.65Q334.2411459754434 271.55 334.2411459754434 266.68L334.2411459754434 266.68L334.2411459754434 244L342.5211459754434 244L342.5211459754434 265.53Q342.5211459754434 272.92 341.8511459754434 275.97Q341.1811459754434 279.02 339.3711459754434 281.11Q337.5711459754434 283.21 334.55114597544343 284.45Q331.5311459754434 285.7 326.6611459754434 285.7L326.6611459754434 285.7Q320.7911459754434 285.7 317.7511459754434 284.34Q314.7211459754434 282.99 312.9611459754434 280.82Q311.1911459754434 278.65 310.6411459754434 276.27L310.6411459754434 276.27Q309.8211459754434 272.75 309.8211459754434 265.87L309.8211459754434 265.87Z M376.6411459754434 269.93L367.1611459754434 269.93L367.1611459754434 263.02L385.0011459754434 263.02L385.0011459754434 279.35Q382.4011459754434 281.87 377.4611459754434 283.78Q372.5311459754434 285.7 367.4611459754434 285.7L367.4611459754434 285.7Q361.0311459754434 285.7 356.2511459754434 283Q351.4711459754434 280.3 349.0611459754434 275.28Q346.6611459754434 270.26 346.6611459754434 264.36L346.6611459754434 264.36Q346.6611459754434 257.96 349.3411459754434 252.98Q352.0311459754434 248 357.2011459754434 245.34L357.2011459754434 245.34Q361.1411459754434 243.3 367.0211459754434 243.3L367.0211459754434 243.3Q374.6511459754434 243.3 378.9411459754434 246.5Q383.2411459754434 249.71 384.4711459754434 255.35L384.4711459754434 255.35L376.2511459754434 256.89Q375.3811459754434 253.87 372.9911459754434 252.12Q370.6011459754434 250.38 367.0211459754434 250.38L367.0211459754434 250.38Q361.5911459754434 250.38 358.3911459754434 253.82Q355.1911459754434 257.26 355.1911459754434 264.02L355.1911459754434 264.02Q355.1911459754434 271.32 358.4311459754434 274.97Q361.67114597544344 278.62 366.9311459754434 278.62L366.9311459754434 278.62Q369.5311459754434 278.62 372.1511459754434 277.6Q374.7611459754434 276.58 376.6411459754434 275.13L376.6411459754434 275.13L376.6411459754434 269.93Z" stroke="none" fill="#F5F1EA" fill-rule="evenodd"/>
</svg>
