<?xml version="1.0" encoding="utf-8"?>
<!-- Generator: Adobe Illustrator 19.0.0, SVG Export Plug-In . SVG Version: 6.00 Build 0)  -->
<svg version="1.1" id="Layer_1" xmlns="http://www.w3.org/2000/svg" xmlns:xlink="http://www.w3.org/1999/xlink" x="0px" y="0px"
	 viewBox="0 0 1920 1080" style="enable-background:new 0 0 1920 1080;" xml:space="preserve">
<style type="text/css">
	.st0{fill:#78BCDA;}
	.st1{fill:#649BB7;}
	.st2{fill:#7EA896;}
	.st3{fill:#BBBABD;}
	.st4{fill:#E8E8E8;}
	.st5{opacity:0.1;fill:#1C1918;}
	.st6{fill:#33343D;}
	.st7{fill:#705543;}
	.st8{fill:#543D31;}
	.st9{fill:#DDCEA6;}
	.st10{fill:#DDBCA6;}
	.st11{fill:#FFFFFF;}
	.st12{fill:#EFEFED;}
	.st13{fill:#F7CEB2;}
	.st14{fill:#222228;}
	.st15{fill:#84653C;}
	.st16{opacity:0.4;fill:#B57662;}
	.st17{fill:#D39484;}
	.st18{fill:#ADADAD;}
	.st19{fill:#2F2739;}
</style>
<g id="XMLID_1_">
	<path id="XMLID_3_" class="st0" d="M1920,0H0v1080h207.7c-9-47-13.7-95.4-13.7-145c0-423.1,342.9-766,766-766s766,342.9,766,766
		c0,49.6-4.7,98-13.7,145H1920V0z"/>
	<path id="XMLID_6_" class="st1" d="M960,169c-423.1,0-766,342.9-766,766c0,49.6,4.7,98,13.7,145h1504.6c9-47,13.7-95.4,13.7-145
		C1726,511.9,1383.1,169,960,169z"/>
</g>
<g id="Board">
	<path id="XMLID_11_" class="st2" d="M970.8,0c-0.1,48.6,0,97.3-0.6,145.9c-0.1,10,4.7,10.1,12,10.1c66.2-0.1,132.3,0.2,198.5-0.4
		c11.7-0.1,14.7,2.9,14.4,14.5c-0.8,29.3,0,58.7,0.1,88c-0.1,83.8-0.5,167.6-0.1,251.4c0.1,12.1-3.2,15.1-15.2,15.1
		c-146.6-0.4-293.1-0.3-439.7-0.3c-2.2,0-4.4-0.2-6.6,0c-6.3,0.6-8.5-2.3-8.3-8.4c0.3-12.3,0.1-24.6,0.1-36.9
		c-0.2-75.5-0.4-150.9-0.6-226.4c0.2-27.6,1.1-55.3,0.2-82.8c-0.4-12.1,3.6-14.3,14.8-14.2c63.6,0.5,127.2,0,190.8,0.5
		c11.2,0.1,13.7-3.3,13.6-14c-0.4-47.4,0.1-94.7,0.2-142.1C953.3,0,962,0,970.8,0z M960.3,490.5c63.6,0,127.3-0.2,190.9,0.3
		c10,0.1,12.2-2.6,12.1-12.3c-0.4-92.2-0.4-184.3,0-276.5c0-9.4-1.6-12.5-11.9-12.5c-127.7,0.4-255.4,0.4-383.2,0
		c-9.7,0-12.5,2.2-12.4,12.2c0.4,92.2,0.5,184.3,0,276.5c-0.1,11.2,4.1,12.5,13.6,12.5C833,490.3,896.7,490.5,960.3,490.5z"/>
	<rect id="XMLID_14_" x="755.8" y="189.4" class="st3" width="407.6" height="301.3"/>
	<path id="XMLID_4_" class="st4" d="M960.3,490.5c-63.6,0-127.3-0.2-190.9,0.2c-9.5,0.1-13.6-1.3-13.6-12.5
		c0.5-92.2,0.5-184.3,0-276.5c0-10,2.7-12.2,12.4-12.2c127.7,0.3,255.4,0.4,383.2,0c10.3,0,11.9,3.1,11.9,12.5
		c-0.4,92.2-0.4,184.3,0,276.5c0,9.7-2.1,12.4-12.1,12.3C1087.6,490.2,1024,490.5,960.3,490.5z M788.8,340
		c-3.5,40.4,33.8,82.6,80.9,81.9c45.5-0.7,82.4-36.4,82.7-81.3c0.3-45-36.6-82-81.4-82.5C818.8,257.4,785.2,302.1,788.8,340z
		 M1053.8,284.8c20.2,0,40.3-0.2,60.5,0.1c7.8,0.1,12.3-1.7,12.3-10.8c0-9.3-4.6-10.8-12.4-10.7c-40.3,0.2-80.7,0.2-121,0
		c-7.8,0-12.3,1.6-12.3,10.8c0,9.2,4.6,10.9,12.4,10.8C1013.5,284.6,1033.7,284.8,1053.8,284.8z M1054.9,326.6
		c-20.6,0-41.2,0.2-61.8-0.1c-8-0.1-12.2,2-12.1,11c0.1,8.2,3.6,10.6,11.2,10.6c41.2-0.2,82.4-0.2,123.7,0c8,0,10.7-3.3,10.7-11.1
		c0.1-8.2-3.7-10.6-11.2-10.5C1095.2,326.8,1075.1,326.6,1054.9,326.6z M1055.2,389.8c-20.6,0-41.2,0.2-61.8-0.1
		c-7.7-0.1-12.4,1.5-12.4,10.7c0,9.2,4.5,10.9,12.3,10.8c40.3-0.2,80.7-0.2,121,0c7.8,0,12.3-1.6,12.4-10.8
		c0-9.2-4.5-10.9-12.3-10.8C1094.6,390,1074.9,389.8,1055.2,389.8z"/>
</g>
<g id="Me">
	<path id="XMLID_386_" class="st5" d="M546.7,938.4c0,7.7-60.1,13.9-132,13.9c-71.9,0-128.5-6.2-128.5-13.9
		c0-7.7,56.6-13.9,128.5-13.9C486.7,924.5,546.7,930.7,546.7,938.4z"/>
	<g id="XMLID_387_">
		<polygon id="XMLID_388_" class="st6" points="452.3,884.1 458.6,922.3 473.5,922.3 468.5,880.7 		"/>
		<path id="XMLID_389_" class="st7" d="M478,904.2c0,0,8.5,11,21.3,14.9c12.9,3.9,24.5,8.8,23.5,16.5c0,0-19.1,9.4-50.2-1.1v3.3
			l-20.4-0.9v-27.1l16.9,1.2l-1.3-2.7L478,904.2z"/>
		<g id="XMLID_390_">
			<path id="XMLID_391_" class="st8" d="M486.2,934.9c27.8,7.2,34.9-0.8,36.5-1.3c0.2,0.7,0.2,1.3,0.2,2c0,0-19.1,9.4-50.2-1.1v3.3
				l-20.4-0.9v-5.4C459.6,932,465.7,929.7,486.2,934.9z"/>
		</g>
	</g>
	<g id="XMLID_392_">
		<polygon id="XMLID_393_" class="st6" points="381.2,884.1 374.8,922.3 360,922.3 364.9,880.7 		"/>
		<path id="XMLID_394_" class="st7" d="M355.5,904.2c0,0-8.5,11-21.3,14.9c-12.9,3.9-25.9,8.8-25,16.5c0,0,20.6,9.4,51.6-1.1v3.3
			l20.4-0.9v-27.1l-16.9,1.2l1.3-2.7L355.5,904.2z"/>
		<g id="XMLID_395_">
			<path id="XMLID_396_" class="st8" d="M343,936.4c-19.5,3.1-32.1-2.2-33.7-2.8c-0.2,0.7-0.2,1.3-0.2,2c0,0,20.6,9.4,51.6-1.1v3.3
				l20.4-0.9v-6.8C373.9,930.6,361.8,933.4,343,936.4z"/>
		</g>
	</g>
	<path id="XMLID_397_" class="st9" d="M449.8,565.4l16,197.7l13.8,135.3c0,0-7.5,10.3-35.7,5.6l-14.8-141.9l-18.2-116.6h-14.5
		l-9.7,258.5c0,0-12.2,9.4-34.8,0.9l4.5-332.7L449.8,565.4z"/>
	<polygon id="XMLID_458_" class="st10" points="408.5,395.6 407.3,448.1 375.6,433.9 376.6,379.9 	"/>
	<path id="XMLID_457_" class="st11" d="M459.5,434.5c0,0-3.1,93.9-9.1,141.6c0,0-23.3,10.4-60.3,8.9c-26.2-1.1-33.7-6.7-33.7-6.7
		l-37.5-154.4c0,0,18.9-9.2,58.8-9.1c0,0-0.1-1.3,9,3.5c6.9,3.7,9.3,28.8,9.3,28.8s1.3-25.2,5.3-27.3c6-3.2,4.9-2.5,9.9-3.8
		c15,1,30.7,5.6,48.2,8.5L459.5,434.5z"/>
	<polygon id="XMLID_456_" class="st12" points="421.8,414.9 412.1,436.3 401.1,419.8 418.4,408.3 	"/>
	<polygon id="XMLID_455_" class="st12" points="365.4,414.3 378.4,435.4 387.6,418.3 368.5,406 	"/>
	<path id="XMLID_398_" class="st13" d="M382.2,264.8c-30.1,6.9-29.3,27.5-29.3,27.5s0.9,15.9,1.5,34.9c-2.8-3.8-7.5-5.4-12.3-3.4
		c-10.2,4.4-2.7,36.6,12.9,33.8c0.7,9,1.5,16,2.7,18.4c4.4,9.2,23.6,23.1,40.6,25.3c17,2.2,38.4-9.2,38.4-29.3
		c0-20.1,0.3-94.5,0.3-94.5S431.9,253.5,382.2,264.8z"/>
	<ellipse id="XMLID_399_" class="st14" cx="387.3" cy="325.7" rx="4.4" ry="7.9"/>
	<ellipse id="XMLID_400_" class="st14" cx="424" cy="327.5" rx="4.4" ry="7.9"/>
	<g id="XMLID_403_">
		<path id="XMLID_28_" class="st15" d="M398.8,307.6c0,0-1.7-0.3-4.2-0.7c-2.4-0.4-5.6-0.9-8.5-0.7c-1.5,0.1-2.9,0.3-4.1,0.7
			c-0.3,0.1-0.6,0.2-0.9,0.3c-0.3,0.1-0.6,0.3-0.9,0.4c-0.6,0.3-1.1,0.6-1.6,0.9c-0.3,0.1-0.5,0.3-0.7,0.5c-0.2,0.2-0.5,0.3-0.6,0.5
			c-0.4,0.3-0.8,0.6-1,0.8c-0.6,0.5-0.9,0.8-0.9,0.8s0.1-0.4,0.3-1.2c0.1-0.4,0.3-0.8,0.5-1.3c0.2-0.5,0.5-1.1,0.9-1.6
			c0.2-0.3,0.4-0.6,0.7-0.9c0.3-0.3,0.5-0.6,0.8-0.8c0.3-0.3,0.6-0.5,1-0.8c0.4-0.2,0.7-0.5,1.1-0.7c0.8-0.4,1.7-0.8,2.6-1
			c0.9-0.3,1.9-0.4,2.8-0.5c0.9,0,1.9,0,2.8,0.1c0.9,0.1,1.8,0.3,2.6,0.5c1.6,0.5,3,1.2,4.2,1.9c1.1,0.7,2,1.4,2.5,1.9
			C398.5,307.3,398.8,307.6,398.8,307.6z"/>
	</g>
	<g id="XMLID_406_">
		<path id="XMLID_26_" class="st15" d="M416.7,307.6c0,0,0.7-1.4,2.5-2.8c0.9-0.7,2.1-1.4,3.5-1.9c0.7-0.2,1.4-0.5,2.3-0.6
			c0.8-0.1,1.6-0.1,2.5-0.1c1.7,0.2,3.4,0.8,4.6,1.8c0.3,0.2,0.6,0.5,0.9,0.8c0.3,0.3,0.5,0.5,0.7,0.8c0.4,0.5,0.7,1.1,1,1.7
			c0.2,0.5,0.4,1,0.5,1.5c0.1,0.5,0.2,0.8,0.2,1.2c0.1,0.7,0.1,1.1,0.1,1.1s-0.3-0.2-0.8-0.7c-0.2-0.2-0.5-0.5-0.9-0.7
			c-0.3-0.3-0.7-0.6-1.1-0.9c-0.4-0.3-0.8-0.6-1.3-0.9c-0.2-0.2-0.4-0.3-0.7-0.4c-0.2-0.1-0.5-0.3-0.7-0.4c-0.5-0.2-1-0.4-1.5-0.6
			c-0.5-0.1-1.1-0.3-1.6-0.3c-2.2-0.3-4.8,0.2-6.8,0.6C418.1,307.3,416.7,307.6,416.7,307.6z"/>
	</g>
	<path id="XMLID_445_" class="st16" d="M343.5,329.5c5.3-2.7,10.1,5.9,10.3,15.1c-4.4-0.7-5.1,4.4-2.7,8
		C342.5,354.4,337.9,332.3,343.5,329.5z"/>
	<path id="XMLID_407_" class="st13" d="M521.9,600.2c-4.2-5.3-9.3-6.5-16.1-7.3c-5.8-19.1-21.2-71-21.2-71l-22.2,15.7
		c0,0,15.5,41.5,26.5,63.2c-0.2,0.2-0.3,0.3-0.3,0.3c-2.3,5.9,0.8,12.4,2.3,16.6c1.6,4.2,1.8,6.3,3.2,10.7c1.2,3.8,3.3,10,5.6,8.4
		c2.3-1.7-2-13.7-0.9-14.3c1.5-0.8,11.2,25.1,14.7,19.3c1.2-1.9-6.6-16.7-6.4-19.7c0.2-3,12.7,21.1,16.8,17.8c2.5-2-12-22.9-9.2-21
		c3.5,2.5,12.5,13.8,14.8,14.4c2.3,0.6,5.1,1.6-2.2-9.5c-5.3-8.1-10.4-13.6-9.8-16c0.7-2.9,4.6,1.2,4.6,1.2
		c10.5,7.6,11.7,1.6,12.3-0.2C534.8,607,526.3,605.8,521.9,600.2z"/>
	<g id="XMLID_441_">
		<path id="XMLID_24_" class="st17" d="M410.3,317.4c0.5,1.2,1,2.5,1.4,3.8c0.4,1.3,0.8,2.6,1.1,3.9c0.7,2.6,1.3,5.2,1.9,7.8l0.8,4
			c0.2,1.3,0.5,2.6,0.7,4c0.4,2.7,0.8,5.3,1.1,8l0,0.3l-0.2,0.1c-1.6,0.8-3.2,1.6-4.9,2.3c-1.6,0.8-3.3,1.5-4.9,2.3
			c1.6-0.9,3.1-1.8,4.7-2.7c1.6-0.9,3.2-1.7,4.7-2.6l-0.2,0.4l-1.4-7.9c-0.5-2.6-0.9-5.3-1.4-7.9c-0.2-1.3-0.5-2.6-0.8-3.9
			c-0.3-1.3-0.5-2.6-0.8-3.9l-0.9-3.9C411,320,410.7,318.7,410.3,317.4z"/>
	</g>
	<g id="XMLID_408_">
		<path id="XMLID_440_" class="st11" d="M509.5,585.3l-26.8-79l-23.5-81.8c-11.7-2.8-36.2-0.3-20.5,43.8l19.7,61.4l23,69.2
			L509.5,585.3z"/>
	</g>
	<path id="XMLID_438_" class="st13" d="M279.2,570.9c0,0-17.7,49.5-13.1,54c0,0,0.5,3.5,5,4c0,0,0.7,4.7,6.1,3.5c0,0,0.5,3.4,2,5.1
		c2.4,2.6,7.9,0.8,7.9-11.1c0,0,1.4,3.7,5.1,5.2c5,2,2.6-5.2,2.6-5.2s-0.2-6.8-1.2-16c-1-9.2-3.9-11.1-3.9-11.1l19.6-63.6
		L279.2,570.9z"/>
	<path id="XMLID_437_" class="st11" d="M271.7,586.1l23.5-79.9l23.5-81.8c11.7-2.8,36.2-0.3,20.5,43.8l-19.7,61.4l-24.1,66.1
		L271.7,586.1z"/>
	<g id="XMLID_412_">
		<path id="XMLID_22_" class="st17" d="M386.8,366.1c0,0,0.5,0.2,1.5,0.6c1,0.4,2.4,0.9,4,1.4c0.8,0.3,1.7,0.6,2.7,0.8
			c1,0.3,2,0.5,3.1,0.8c1.1,0.3,2.2,0.5,3.3,0.8c1.1,0.2,2.3,0.4,3.5,0.6c1.2,0.1,2.3,0.3,3.5,0.4c1.1,0.1,2.3,0.2,3.4,0.1
			c1.1,0,2.2,0,3.2-0.1c1-0.1,2-0.1,2.8-0.3c0.9-0.2,1.7-0.3,2.4-0.4c0.7-0.1,1.3-0.3,1.8-0.4c1-0.2,1.6-0.4,1.6-0.4
			s-0.6,0.2-1.5,0.6c-0.5,0.2-1.1,0.4-1.8,0.6c-0.7,0.2-1.5,0.4-2.4,0.6c-0.9,0.2-1.8,0.3-2.9,0.4c-1,0.2-2.1,0.2-3.2,0.2
			c-1.1,0.1-2.3,0-3.4-0.1c-1.2,0-2.4-0.2-3.5-0.3c-1.2-0.2-2.3-0.4-3.5-0.6c-1.1-0.3-2.3-0.5-3.3-0.8c-1.1-0.3-2.1-0.6-3.1-1
			c-1-0.3-1.9-0.7-2.7-1C388.8,367.3,386.8,366.1,386.8,366.1z"/>
	</g>
	<path id="XMLID_413_" class="st15" d="M437.6,283.4c6.2-0.8,17.8-13.3,13.3-26.2c0,0-1.1,7.1-11,7.1c0,0,5.6-2.3,6.8-5.6
		c0,0-7.1,4.2-23.7-5.9c-1.5-0.9-3.2-1.9-5-2.8c-2.5-1.4-5.1-2.6-7.7-3.5c-19-7.5-46.1-9.9-55.5,25.6c-0.4,1.2-0.5,2-0.5,2
		s-13.2-1.4-13.2,21c0,8.5,3.2,17.3,7.3,28c4,0.6,6.6,6.1,6.6,6.1l1.9,14.5c0,4-0.2,10.6-1.6,14.1c-2.1,5.2-4.9,29.8,27.3,42.2
		c32.2,12.4,61.8-0.6,54.4-42.3c0,0,0.6,11.3-4.4,9.8c-5.1-1.4-0.3-16-24.6-13.3c-7.7-1-18-7.2-26.5,7.4
		c-6.6,11.4-18.8,3.6-19.8-25.3V329c0-0.4,0-0.8,0-1.3l0,0.1v-19.6c0,0,9-7.8,10.1-18.7c59.1,22.7,77.1-6.1,77.1-6.1
		S444.4,284.8,437.6,283.4z M387.1,363.8c12.6,3.8,21.9-1.3,21.9-1.3c7.3,5.8,17,5.3,17,5.3c1.4,1.7,5.4,14.4-8.2,19.5
		c-13.5,5.1-10.2-9.9-10.2-9.9l-5.4-0.8c0,0,2.1,11.6-9.9,10.4C374.9,385.3,387.1,363.8,387.1,363.8z"/>
	<g id="XMLID_416_">
		<g id="XMLID_417_">
			<path id="XMLID_430_" class="st7" d="M437.7,584.8c8.1-2,12-4.6,12.1-4.6c2.4-0.9,2.1,1.7,2.3,4.5c0.3,3.6-0.2,5.6-2.3,6.3
				c-0.4,0.1-2.3,2.4-10.3,4.6C438.9,592,438.3,588.4,437.7,584.8z"/>
			<path id="XMLID_429_" class="st7" d="M379.7,587.9c9,0.9,18.8,1.1,29.5,0.8c8.2-0.2,15.6-1.2,21.8-2.4c-0.2,3.7,0.2,7.4,0.8,11.1
				c-6.3,1.3-13.8,2.4-22.4,2.6c-3.5,0.1-6.9,0.1-10.2,0.1c-7.4-0.1-14.3-0.6-20.7-1.4C379.2,595.1,379.6,591.5,379.7,587.9z"/>
			<path id="XMLID_428_" class="st7" d="M353.3,587c0.5-2.7,0.8-5.1,3.1-4.2c5.3,2,11.1,3.4,17.4,4.4c-0.2,3.6-0.7,7.1-1.2,10.6
				c-6.5-1.2-12.6-2.8-18.2-5.1C352.8,591.9,352.9,589.8,353.3,587z"/>
		</g>
		<path id="XMLID_424_" class="st18" d="M394.5,587.1l-0.3,14.4l20.9-1.2l0.2-13.4L394.5,587.1z M398,589.5l13.8-0.1l-0.2,8.9
			l-13.8,0.8L398,589.5z"/>
	</g>
	<polygon id="XMLID_418_" class="st12" points="269.2,588.1 273.4,571.2 302.7,584.4 296.5,598.8 	"/>
	<polygon id="XMLID_419_" class="st12" points="474.5,586.4 506.7,574.6 511.8,585.3 478.5,599.9 	"/>
</g>
<path id="Audience" class="st19" d="M1920,912.8V1080c-638.6-0.2-1920,0-1920,0s-1-86.8-1-174.3c11.9-12.9,32.6-9.5,46.3-19.7
	c-7.3-4.3-17.6-1.5-19.7-12.3c-4.9-25-4.9-49.7,5.1-73.5c7.3-17.3,19.9-28.1,39.5-29.2c20.7-1.2,34.4,8.9,43.5,26.6
	c9.4,18.3,11.8,38.1,11,58.4c-0.7,20.6-2.7,23.1-21.9,29.8c5.4,6.6,13.4,6.2,20.5,8.1c9.4,2.5,22.5,3.9,23.7,14.5
	c1.7,14.2,6.1,26.4,13.1,38.4c2,3.5,0.9,8.9,1.4,13.4c0.3,3.1-1.2,6.6,1.5,9.4c8.8-8.1,12.9-20,7.6-25.7
	c-7.2-7.9-8.8-19.1-17.2-26.2c-3-2.5-4.6-7.3-3.5-11.5c3.2-12-0.2-23.9-0.1-35.8c0-7.5,2.1-14.5,7-19.9c4.2-4.5,4.3-7.5-1.6-11.3
	c11.5,0.5,19.2-11.6,30.9-6.3c1,1.4,2.7,2.2,3.7,1.1c1.4-1.6-1.1-2.1-1.9-3c-0.2-2.1,1.1-2.7,2.8-2.2c14.5,4.3,28.2,10.4,40.3,19.6
	c5.4,4.1,7.7,10.2,9,16.7c2.8,14.5-3.2,29.1,0.3,43.7c0.6,2.4-1,6.5-3,8.3c-7.2,6.6-9.6,16-15,23.6c-5.8,8.2-5.3,19.5,1.4,26.7
	c1.8,1.9,3.7,4.3,6.7,3.2c2.7-1.1,1.6-3.9,1.6-6c0-9.1-1.5-19,5.3-26c6.9-7.1,8-15,7.1-23.8c-1.2-12.7,3.2-22.1,15-27.6
	c8.2-1.5,16.3-3.1,24.5-4.6c14.2-2.7,19.6-16.9,11.4-29c-5.4-8-11.6-16-14.8-25c-3.8-10.3-0.7-21.7,0.6-32.2
	c2.7-21.9,20.8-35.7,42.2-34.2c20.6,1.5,35.9,18.8,36.1,40.7c0,3.8-0.3,7.7,0.7,11.2c2.6,8.9,0,15.9-5.5,23
	c-5,6.4-9.5,13.5-13.1,20.9c-4.9,10.3,3.8,22.5,17,24.9c9.3,1.7,19.1,7.3,27.2,6.3c8.5-1.1,9.6-14.6,15.2-22
	c25.5-33.6,66.8-33.4,91.6,0.9c4.9,6.8,8.7,14.1,12,21.8c1.3,3,2,7.5,6.6,6.3c12-3,24.7-4.6,34.2-13.8c4.7-4.5,7.5-11,3.1-16.1
	c-6.2-7.3-7.9-17-15.2-23.6c-4.2-3.8-5.1-10.5-3.5-16c1.7-6,2.3-12,1.5-17.9c-2.9-21,11.6-35.4,31.4-39.4c3.7,0.3,7.5,0.7,11.2,0.9
	c25.9,1.4,33.9,9.2,36,35c-2.8,12.9,6,26.6-2.6,39.1c-7.2,2.7-7,10.3-10.3,15.5c-9.9,15.4-8.6,20.1,7.8,28.4
	c8.1,5,17.1,6.3,26.5,5.9c10.6,9.5,10.7,9.5,14-3.6c3.4-13.7,8.5-26.7,17.8-37.5c17.3-20.2,45.4-20.9,64-2
	c7.1,7.2,10.9,16.3,16,24.6c2.6,11,5.2,22.1,7.7,33.1c0.6,2.7,1.1,6.1,4.7,4.5c10.9-5.1,23.5-4.6,35.7-9.9c-2.5-2-3.5-3.3-4.8-3.7
	c-8.5-2.7-10.8-7.1-9.3-16.8c2.5-16.3,4-33.1,1.8-49.7c-3.3-25.2,13.6-45.9,38.2-48.2c21.5-2.1,47.5,16.6,45.4,42.5
	c-1.4,16.9-3.2,34.4,0.6,50.9c2.8,11.9,1.8,19.2-10.3,23.2c-0.3,0.1-0.1,1.3-0.3,3.4c19.3,3.2,38.7,6.7,49.5,27.1
	c3.5,6.5,5.2-0.6,5.5-4c1.9-21.2,5.6-42,13.9-61.7c1.9-2.8,3.8-5.6,5.8-8.3c19.3-27.4,53.9-27.6,73.3-0.5c6.5,9,10.7,19.1,13.8,29.7
	c5.2,17.7,7,35.9,8.2,54.6c3.9-7.1,13.3-9.2,14.4-18.1c2.9-22,5.9-25.2,27.9-29.6c6.6-1.3,13.4-2.1,18.6-7.7
	c-6.2-4.3-16.8-1.5-18.8-11.9c-5-25.7-5.2-51.2,5.9-75.6c7.7-16.9,20.6-26.5,39.6-27.4c19.8-0.9,33.1,8.8,41.9,25.5
	c9.4,17.9,12.4,37.3,11.6,57.1c-0.6,14.6-0.2,30.6-22.9,31.2c6.4,6.5,12.8,7.5,19,8.6c9.9,1.7,18.9,5.1,26.5,11.8
	c2,12.7-0.5,26.5,10.9,36.7c3.2,2.8,2.5,8.5,2.6,13c0.2,4.8-1.2,9.8,1.1,14.5c11-7.4,12.7-18.3,6.8-28.5
	c-6.9-11.9-16.9-22-20.1-35.9c2.8-7.9,3-15.9,1.7-24.2c-1.4-8.5-0.8-17,2.7-25.4c1.8-4.5,12.4-7.9,3.4-15c0.7-0.8,1.4-2.2,2-2.2
	c9.4,0.8,16.5-11.2,27.1-4.7c4.1,2.5,4.1-0.4,3.3-3.5l-0.2,0.2c11.1-3.2,18.2,5.8,27.1,9.1c19.3,7.1,27.1,20.3,24.6,40.6
	c-0.9,7.1-2.2,13.9,0.2,21.2c1.8,5.4,0.1,12.3-3.8,16c-7.1,6.8-9.2,16.3-14.9,23.7c-5.8,7.7-4.7,20.2,2.1,26.8
	c1.6,1.6,3.4,3.4,5.8,2.7c3-0.8,2-3.7,2.1-5.7c0.3-8.6-2.1-18.5,4.4-25.1c8.9-9,9.2-19.3,8.4-30.3c-0.9-11.9,5.3-18.6,15.8-21.7
	c7.9-2.3,16.2-3.6,24.3-5.4c12.6-2.8,17.5-17.2,11.1-28.2c-5.6-9.6-15.3-17.7-16.3-29c-1.1-12.2-1-24.9,2.9-36.9
	c3-9.3,9.2-16.4,17.9-21.2c16.9-9.2,36.9-5.6,49.4,9c11.3,13.1,15.6,48.1,6.2,58.6c-4.5,5-6.4,11-9.8,16.3
	c-10.7,16.8-5.8,28.6,13.3,32.2c8.9,1.7,18.6,7.5,26,6.1c8.1-1.6,9.7-14.8,15.3-22.2c24.1-32,64.1-33.2,88.9-2.4
	c6.2,7.7,10.9,16.4,14.6,25.5c1.5,3.6,2.7,7.5,7.9,5.8c10.4-3.2,21.5-4.3,30.4-11.7c8-6.6,8.2-12.4,3.4-21.3
	c-5.1-9.6-14.3-17.2-16.1-28c-1.6-9.4-0.1-19.3,0.5-29c0.7-10.9,2.4-20.4,13.2-28.1c13.7-9.8,45.9-10.6,57.6,1.8
	c8.5,8.9,13.9,52,6.3,61.7c-5.4,6.9-8.6,14.9-13.7,21.8c-5.9,8-4.1,15,3.6,21.4c8.7,7.2,19.8,7.1,29.5,11.1
	c4.8,1.9,9.5,3.9,14.3,5.9c1.6-5.4,3.2-10.7,4.7-16.1c9.5-33.1,24.8-46.8,54.3-48.7c21.5,4.4,33.6,19,41.3,38.3
	c4.2,10.6,7.1,21.5,8.8,32.8c0.4,2.4,0.3,6.9,3.8,5.4c11.3-5.1,24.1-5.1,36-9.8c-3.2-4.7-7.5-5.3-11.1-7c-3.2-1.6-4.6-3.3-3.8-7
	c4.3-19.8,2.9-39.9,2.6-59.9c-0.4-26.5,18-45.4,43.3-44.9c25,0.5,41.4,19,40.7,45.8c-0.4,15.5-2.6,31.2,0.4,46.4
	c2.4,12.1,5,22.2-12.8,25.2C1903.3,908.9,1908.2,901.6,1920,912.8z"/>
</svg>
