<?xml version="1.0" encoding="UTF-8" standalone="no"?>
<!-- Created with Inkscape (http://www.inkscape.org/) -->

<svg
   viewBox="0 0 88.955955 65.778717"
   version="1.1"
   id="svg1"
   inkscape:version="1.3.2 (091e20ef0f, 2023-11-25)"
   sodipodi:docname="mutiny-icon.svg"
   xml:space="preserve"
   xmlns:inkscape="http://www.inkscape.org/namespaces/inkscape"
   xmlns:sodipodi="http://sodipodi.sourceforge.net/DTD/sodipodi-0.dtd"
   xmlns="http://www.w3.org/2000/svg"
   xmlns:svg="http://www.w3.org/2000/svg"><sodipodi:namedview
     id="namedview1"
     pagecolor="#000000"
     bordercolor="#666666"
     borderopacity="1.0"
     inkscape:showpageshadow="2"
     inkscape:pageopacity="0.0"
     inkscape:pagecheckerboard="0"
     inkscape:deskcolor="#d1d1d1"
     inkscape:document-units="mm"
     showgrid="true"
     inkscape:zoom="2.7402638"
     inkscape:cx="1.6421777"
     inkscape:cy="26.092378"
     inkscape:window-width="1920"
     inkscape:window-height="975"
     inkscape:window-x="1920"
     inkscape:window-y="32"
     inkscape:window-maximized="1"
     inkscape:current-layer="layer1"><inkscape:grid
       id="grid1"
       units="px"
       originx="-232.53195"
       originy="-16.351368"
       spacingx="1"
       spacingy="1"
       empcolor="#0099e5"
       empopacity="0.30196078"
       color="#0099e5"
       opacity="0.14902"
       empspacing="5"
       dotted="false"
       gridanglex="30"
       gridanglez="30"
       visible="true" /></sodipodi:namedview><defs
     id="defs1"><inkscape:path-effect
       effect="fillet_chamfer"
       id="path-effect2"
       is_visible="true"
       lpeversion="1"
       nodesatellites_param="F,0,0,1,0,40,0,1 @ F,0,0,1,0,40,0,1 @ F,0,0,1,0,40,0,1 @ F,0,0,1,0,40,0,1"
       radius="0"
       unit="px"
       method="auto"
       mode="F"
       chamfer_steps="1"
       flexible="false"
       use_knot_distance="true"
       apply_no_radius="true"
       apply_with_radius="true"
       only_selected="false"
       hide_knots="false" /><inkscape:path-effect
       effect="fillet_chamfer"
       id="path-effect2-5"
       is_visible="true"
       lpeversion="1"
       nodesatellites_param="F,0,0,1,0,40,0,1 @ F,0,0,1,0,40,0,1 @ F,0,0,1,0,40,0,1 @ F,0,0,1,0,40,0,1"
       radius="0"
       unit="px"
       method="auto"
       mode="F"
       chamfer_steps="1"
       flexible="false"
       use_knot_distance="true"
       apply_no_radius="true"
       apply_with_radius="true"
       only_selected="false"
       hide_knots="false" /><style
       id="style1">.cls-1 { fill:#4695eb; }
.cls-2 { fill:#ff004a; }
.cls-3 { fill:#091313; }
</style><inkscape:path-effect
       effect="fillet_chamfer"
       id="path-effect2-5-2"
       is_visible="true"
       lpeversion="1"
       nodesatellites_param="F,0,0,1,0,40,0,1 @ F,0,0,1,0,40,0,1 @ F,0,0,1,0,40,0,1 @ F,0,0,1,0,40,0,1"
       radius="0"
       unit="px"
       method="auto"
       mode="F"
       chamfer_steps="1"
       flexible="false"
       use_knot_distance="true"
       apply_no_radius="true"
       apply_with_radius="true"
       only_selected="false"
       hide_knots="false" /></defs><g
     inkscape:label="Layer 1"
     inkscape:groupmode="layer"
     id="layer1"
     transform="translate(-1292.4133,-471.60097)"><path
       fill="#ffffff"
       d="m 2.6757612,97.46398 q 5.640625,-17.03125 10.7499998,-33.40625 2.1875,-6.921875 4.484374,-14.46875 2.3125,-7.546875 4.609375,-14.96875 2.296875,-7.4375 4.28125,-14.34375 1.984375,-6.906249 3.53125,-12.796874 7.031252,0 13.296877,-0.765625 6.28125,-0.765625 13.578125,-1.40625 -0.390625,2.8125 -0.84375,6.328125 -0.4375,3.515625 -1.015625,7.359374 -0.578125,3.84375 -1.21875,7.9375 -0.640625,4.09375 -1.53125,10.5 -0.890625,6.390625 -2.4375,16 h 1.671875 q 3.71875,-9.734375 6.140625,-16.1875 2.4375,-6.46875 3.96875,-10.5625 1.53125,-4.09375 3.124996,-8 1.609375,-3.906249 3.078125,-7.421874 1.484375,-3.53125 2.765625,-6.21875 3.1875,-0.25 6,-0.625 2.828125,-0.390625 5.640625,-0.84375 2.8125,-0.453125 5.6875,-0.890625 2.890625,-0.453125 6.34375,-1.09375 -1.28125,7.421875 -2.4375,15.234374 -1.140625,7.8125 -2.046875,15.5625 -0.890625,7.734375 -1.71875,15.28125 -0.828125,7.546875 -1.46875,14.34375 -1.546875,15.859375 -2.6875,30.96875 l -22.281246,3.96875 q 0,-0.640625 0.1875,-3.453125 0.203125,-2.8125 0.515625,-6.90625 0.328125,-4.109375 0.890625,-9.09375 0.578122,-5 1.156247,-9.984375 0.578125,-5 1.21875,-9.671875 0.640625,-4.671875 1.28125,-8 h -1.15625 q -1.78125,5.375 -3.968747,11.328125 -2.171875,5.953125 -4.421875,12.109375 -2.234375,6.140625 -4.40625,12.03125 -2.171875,5.875 -3.84375,11.265625 -4.46875,0.125 -7.671875,0.3125 -3.203125,0.1875 -7.421875,0.453125 l 4.09375,-47.5 h -1.921875 q -0.25,1.671875 -1.28125,5.578125 -1.03125,3.90625 -2.375,8.96875 -1.343751,5.046875 -2.875002,10.484375 -1.53125,5.4375 -2.875,10.109375 -1.34375,4.671875 -2.25,7.6875 -0.890625,3 -1.015625,3.390625 z M 113.40291,67.885855 q -3.71875,0 -7.4375,0.265625 -3.70312,0.25 -7.406249,0.515625 3.953129,-15.75 7.734379,-31.359375 3.78125,-15.625 7.875,-31.359375 2.4375,-0.390625 5.5625,-0.765625 3.14062,-0.390625 6.34375,-0.90625 3.20312,-0.515625 6.20312,-0.890625 3.01563,-0.390625 5.0625,-0.765625 -6.92187,16.125 -12.625,32.453125 -5.6875,16.3125 -11.3125,32.8125 z m 1.28125,20.109375 q 0,2.421875 -1.09375,4.859375 -1.09375,2.4375 -3.14062,4.296875 -2.04688,1.84375 -5.125,2.92188 -3.0625,1.09375 -7.031254,1.09375 -2.6875,0 -4.859382,-1.03125 -2.171875,-1.01563 -3.515625,-2.73438 -1.34375,-1.734375 -2.125,-3.90625 -0.765625,-2.171875 -0.765625,-4.359375 0,-2.421875 0.765625,-4.65625 0.78125,-2.25 2.375,-3.96875 1.59375,-1.734375 3.953125,-2.890625 2.375007,-1.15625 5.703132,-1.15625 7.437504,0 11.140624,3.53125 3.71875,3.515625 3.71875,8 z"
       fill-rule="nonzero"
       id="path4-6"
       style="fill:#ffffff;stroke:none;stroke-linecap:square;stroke-miterlimit:10"
       transform="matrix(0.66057393,0,0,0.66057393,1290.6458,470.55133)" /></g></svg>
