<?xml version="1.0" encoding="UTF-8" standalone="no"?>
<svg
   version="1.1"
   x="0px"
   y="0px"
   viewBox="0 0 92.900002 100.2375"
   xml:space="preserve"
   id="svg2"
   sodipodi:docname="noun-healing-4824040.svg"
   inkscape:version="1.3.2 (091e20ef0f, 2023-11-25)"
   xmlns:inkscape="http://www.inkscape.org/namespaces/inkscape"
   xmlns:sodipodi="http://sodipodi.sourceforge.net/DTD/sodipodi-0.dtd"
   xmlns="http://www.w3.org/2000/svg"
   xmlns:svg="http://www.w3.org/2000/svg"><defs
     id="defs2" /><sodipodi:namedview
     id="namedview2"
     pagecolor="#ffffff"
     bordercolor="#666666"
     borderopacity="1.0"
     inkscape:showpageshadow="2"
     inkscape:pageopacity="0.0"
     inkscape:pagecheckerboard="0"
     inkscape:deskcolor="#d1d1d1"
     inkscape:zoom="5.8254545"
     inkscape:cx="46.434145"
     inkscape:cy="66.003433"
     inkscape:window-width="1920"
     inkscape:window-height="1007"
     inkscape:window-x="0"
     inkscape:window-y="0"
     inkscape:window-maximized="1"
     inkscape:current-layer="svg2" /><path
     d="m 29.4,92.7375 c 2.3,1 4.8,1.8 7.2,2.4 l -0.9,3.9 c -2.7,-0.6 -5.4,-1.5 -7.9,-2.6 z m 59.5,-41.6 4,-0.2 c -0.2,-2.8 -0.6,-5.6 -1.2,-8.3 l -3.9,1 c 0.5,2.4 0.9,5 1.1,7.5 z m -83.3,14.5 -3.8,1.1 c 0.8,2.7 1.8,5.3 3,7.8 l 3.6,-1.8 c -1.1,-2.3 -2.1,-4.6 -2.8,-7.1 z m 1.8,13.4 c 1.5,2.3 3.2,4.5 5.2,6.6 l 2.9,-2.7 c -1.7,-1.9 -3.3,-3.9 -4.7,-6 z m 66.5,-62.8 c -2.2,-1.6 -4.6,-3.1 -7.1,-4.3 l -1.8,3.6 c 2.3,1.1 4.5,2.4 6.5,3.9 z m -69.7,42 -0.2,-3.5 -4,0.2 0.2,3.6 c 0.1,1 0.2,2.1 0.4,3.1 l 3.9,-0.7 c -0.1,-0.9 -0.3,-1.8 -0.3,-2.7 z m 82.1,-19.2 3.8,-1.4 c -1,-2.6 -2.2,-5.1 -3.6,-7.5 l -3.4,2 c 1.2,2.2 2.3,4.5 3.2,6.9 z M 62,9.9375 c -2.6,-0.9 -5.3,-1.6 -8.1,-2.1 l -0.6,3.9 c 2.5,0.4 5,1 7.4,1.9 z m -45.7,79.3 c 2.1,1.8 4.4,3.4 6.8,4.8 l 2,-3.5 c -2.2,-1.3 -4.3,-2.8 -6.2,-4.4 z m 67,-14.3 3.5,2 c 1.4,-2.4 2.6,-5 3.5,-7.6 l -3.8,-1.3 c -0.9,2.4 -2,4.7 -3.2,6.9 z m -7.7,9.7 2.7,2.9 c 2,-1.9 3.9,-4 5.5,-6.2 l -3.2,-2.4 c -1.4,2.1 -3.2,4 -5,5.7 z m 4.8,-56.4 3.2,-2.4 c -1.7,-2.2 -3.6,-4.3 -5.6,-6.2 l -2.7,2.9 c 1.8,1.7 3.5,3.6 5.1,5.7 z m 8.5,27.7 c -0.1,2.5 -0.5,5.1 -1.1,7.6 l 3.9,0.9 c 0.6,-2.7 1,-5.5 1.2,-8.3 z m -47.5,40 -0.5,4 c 1.8,0.2 3.7,0.3 5.5,0.3 0.9,0 1.9,0 2.8,-0.1 l -0.2,-4 c -2.5,0.2 -5.1,0.1 -7.6,-0.2 z m 12.3,-0.3 0.7,3.9 c 2.7,-0.5 5.5,-1.2 8.1,-2.2 l -1.4,-3.8 c -2.4,1 -4.9,1.7 -7.4,2.1 z m 11.8,-3.9 1.8,3.6 c 2.5,-1.2 4.9,-2.7 7.1,-4.4 l -2.4,-3.2 c -2.1,1.6 -4.3,2.9 -6.5,4 z m -30,-74.3 c -0.6,0.9 -0.4,2.2 0.6,2.8 0.3,0.2 0.7,0.3 1.1,0.3 0.6,0 1.3,-0.3 1.7,-0.9 l 6.6,-9.9 c 0.6,-0.9 0.4,-2.2 -0.6,-2.8 l -9.9,-6.6 c -0.9,-0.6 -2.2,-0.4 -2.8,0.6 -0.6,0.9 -0.4,2.2 0.6,2.8 l 6.2,4.1 c -20.5,3.4 -36.7,20.3 -38.8,41.1 l 4,0.4 c 2,-18.9 16.5,-34.3 35.1,-37.4 z m 38.9,32.3 v 8.4 c 0,2.7 -2.2,4.8 -4.8,4.8 H 55.5 v 14.1 c 0,2.7 -2.2,4.8 -4.8,4.8 h -8.4 c -2.7,0 -4.8,-2.2 -4.8,-4.8 v -14.1 H 23.4 c -2.7,0 -4.8,-2.2 -4.8,-4.8 v -8.4 c 0,-2.7 2.2,-4.8 4.8,-4.8 h 14.1 v -14.1 c 0,-2.7 2.2,-4.8 4.8,-4.8 h 8.4 c 2.7,0 4.8,2.2 4.8,4.8 v 14.1 h 14 c 2.7,-0.1 4.9,2.1 4.9,4.8 z m -4,0 c 0,-0.5 -0.4,-0.8 -0.8,-0.8 H 51.5 v -18.1 c 0,-0.5 -0.4,-0.8 -0.8,-0.8 h -8.4 c -0.5,0 -0.8,0.4 -0.8,0.8 v 18.1 H 23.4 c -0.5,0 -0.8,0.4 -0.8,0.8 v 8.4 c 0,0.5 0.4,0.8 0.8,0.8 h 18.1 v 18.1 c 0,0.5 0.4,0.8 0.8,0.8 h 8.4 c 0.5,0 0.8,-0.4 0.8,-0.8 v -18.1 h 18 c 0.5,0 0.8,-0.4 0.8,-0.8 v -8.4 z"
     id="path1" /></svg>
