<?xml version="1.0" encoding="UTF-8" standalone="no"?>
<!-- Created with Inkscape (http://www.inkscape.org/) -->

<svg
   viewBox="0 0 399.65353 217.14723"
   version="1.1"
   id="svg1"
   inkscape:version="1.3.2 (091e20ef0f, 2023-11-25)"
   sodipodi:docname="yakd-merge-diagram.svg"
   xml:space="preserve"
   xmlns:inkscape="http://www.inkscape.org/namespaces/inkscape"
   xmlns:sodipodi="http://sodipodi.sourceforge.net/DTD/sodipodi-0.dtd"
   xmlns="http://www.w3.org/2000/svg"
   xmlns:svg="http://www.w3.org/2000/svg"><sodipodi:namedview
     id="namedview1"
     pagecolor="#000000"
     bordercolor="#666666"
     borderopacity="1.0"
     inkscape:showpageshadow="2"
     inkscape:pageopacity="0.0"
     inkscape:pagecheckerboard="0"
     inkscape:deskcolor="#d1d1d1"
     inkscape:document-units="mm"
     showgrid="true"
     inkscape:zoom="0.68506595"
     inkscape:cx="86.852952"
     inkscape:cy="2.1895702"
     inkscape:window-width="1920"
     inkscape:window-height="975"
     inkscape:window-x="1920"
     inkscape:window-y="32"
     inkscape:window-maximized="1"
     inkscape:current-layer="layer1"><inkscape:grid
       id="grid1"
       units="px"
       originx="242.75538"
       originy="108.57376"
       spacingx="1"
       spacingy="1"
       empcolor="#0099e5"
       empopacity="0.30196078"
       color="#0099e5"
       opacity="0.14902"
       empspacing="5"
       dotted="false"
       gridanglex="30"
       gridanglez="30"
       visible="true" /></sodipodi:namedview><defs
     id="defs1"><marker
       style="overflow:visible"
       id="Triangle-merge-diagram"
       refX="0"
       refY="0"
       orient="auto-start-reverse"
       inkscape:stockid="Triangle arrow"
       markerWidth="1"
       markerHeight="1"
       viewBox="0 0 1 1"
       inkscape:isstock="true"
       inkscape:collect="always"
       preserveAspectRatio="xMidYMid"><path
         transform="scale(0.5)"
         style="fill:#ffffff;fill-rule:evenodd;stroke:#ffffff;stroke-width:1pt"
         d="M 5.77,0 -2.88,5 V -5 Z"
         id="path135" /></marker><inkscape:path-effect
       effect="fillet_chamfer"
       id="path-effect2"
       is_visible="true"
       lpeversion="1"
       nodesatellites_param="F,0,0,1,0,40,0,1 @ F,0,0,1,0,40,0,1 @ F,0,0,1,0,40,0,1 @ F,0,0,1,0,40,0,1"
       radius="0"
       unit="px"
       method="auto"
       mode="F"
       chamfer_steps="1"
       flexible="false"
       use_knot_distance="true"
       apply_no_radius="true"
       apply_with_radius="true"
       only_selected="false"
       hide_knots="false" /><inkscape:path-effect
       effect="fillet_chamfer"
       id="path-effect2-5"
       is_visible="true"
       lpeversion="1"
       nodesatellites_param="F,0,0,1,0,40,0,1 @ F,0,0,1,0,40,0,1 @ F,0,0,1,0,40,0,1 @ F,0,0,1,0,40,0,1"
       radius="0"
       unit="px"
       method="auto"
       mode="F"
       chamfer_steps="1"
       flexible="false"
       use_knot_distance="true"
       apply_no_radius="true"
       apply_with_radius="true"
       only_selected="false"
       hide_knots="false" />
  <style id="style1">
    .cls-1 { fill:#4695eb; }
    .cls-2 { fill:#ff004a; }
    .cls-3 { fill:#091313; }
    .fabric8-path {
      stroke: #FFFFFF;
    }
    .sse-path {
      stroke: #FFFFFF;
  </style>
  <inkscape:path-effect
       effect="fillet_chamfer"
       id="path-effect2-5-2"
       is_visible="true"
       lpeversion="1"
       nodesatellites_param="F,0,0,1,0,40,0,1 @ F,0,0,1,0,40,0,1 @ F,0,0,1,0,40,0,1 @ F,0,0,1,0,40,0,1"
       radius="0"
       unit="px"
       method="auto"
       mode="F"
       chamfer_steps="1"
       flexible="false"
       use_knot_distance="true"
       apply_no_radius="true"
       apply_with_radius="true"
       only_selected="false"
       hide_knots="false" /></defs><g
     inkscape:label="Layer 1"
     inkscape:groupmode="layer"
     id="layer1"
     transform="translate(-781.97898,-346.42624)"><g
       id="g47"
       inkscape:label="merge"
       transform="matrix(1.3406726,0,0,1.3406726,-354.97954,287.41578)"><path
         class='fabric8-path'
         style="fill:none;stroke-width:3;stroke-linecap:butt;stroke-linejoin:miter;stroke-dasharray:none;stroke-opacity:1"
         d="m 1144.7343,195 c 0,0 0,0 -90,0 -20,0 -20,-70 -20,-70"
         id="path47"
         sodipodi:nodetypes="csc" /><path
         class='fabric8-path'
         style="fill:none;stroke-width:3;stroke-linecap:butt;stroke-linejoin:miter;stroke-dasharray:none;stroke-opacity:1"
         d="m 1144.7343,160 h -90 c -20.0062,0 -20,-35 -20,-35"
         id="path49"
         sodipodi:nodetypes="csc" /><path
         class='fabric8-path'
         style="fill:none;stroke-width:3;stroke-linecap:butt;stroke-linejoin:miter;stroke-dasharray:none;stroke-opacity:1"
         d="m 1144.7343,90 h -90 c -20.0062,0 -20,35 -20,35"
         id="path48"
         sodipodi:nodetypes="csc" /><path
         class='fabric8-path fabric8-pod-path'
         style="fill:none;stroke-width:3;stroke-linecap:butt;stroke-linejoin:miter;stroke-dasharray:none;stroke-opacity:1"
         d="m 1144.7343,55 c 0,0 0,0 -90,0 -20,0 -20,70 -20,70"
         id="path41"
         sodipodi:nodetypes="csc" /><path
         class='sse-path'
         style="fill:none;stroke-width:3.72947;stroke-linecap:butt;stroke-linejoin:miter;stroke-dasharray:none;stroke-opacity:1;marker-start:url(#Triangle-merge-diagram)"
         d="M 861.29446,125.00021 1034.7343,125"
         id="path55"
         sodipodi:nodetypes="cc" /><g
         id="g108"
         inkscape:label="pod-envelope-4"
         transform="matrix(0.3979377,0,0,0.3979377,530.55938,-28.566917)"><path
           d="m 1538.0774,183.6466 h -64.758 c -4.1992,0 -7.6211,3.4102 -7.6211,7.6094 v 37.488 c 0,4.1992 3.4219,7.6094 7.6211,7.6094 h 64.762 c 4.1992,0 7.6211,-3.4102 7.6211,-7.6094 v -37.477 c 0,-4.1992 -3.4219,-7.6094 -7.6211,-7.6094 z m 0.1211,44.051 c 0.3008,0.19922 0.5,0.53906 0.5,0.92969 0,0.60938 -0.4883,1.1094 -1.1016,1.1094 h -0.012 c -0.2305,0 -0.461,-0.0781 -0.6406,-0.21094 l -25.32,-18.16 -3.3281,2.3906 c -0.7813,0.55859 -1.6797,0.82812 -2.5898,0.82812 -0.9102,0 -1.8086,-0.28125 -2.5898,-0.82812 l -3.3281,-2.3906 -25.32,18.16 c -0.1915,0.12891 -0.4102,0.21094 -0.6407,0.21094 -0.6093,0 -1.1094,-0.5 -1.1094,-1.1094 0,-0.41016 0.211,-0.76953 0.5391,-0.96875 l 24.629,-17.66 -24.711,-17.711 c -0.5,-0.37109 -0.6094,-1.0586 -0.2617,-1.5586 0.3594,-0.5 1.0391,-0.60938 1.5391,-0.26172 l 29.961,21.469 c 0.7695,0.55859 1.8086,0.55859 2.5781,0 l 29.961,-21.469 c 0.1914,-0.12891 0.4101,-0.21094 0.6406,-0.21094 0.6094,0 1.1211,0.5 1.1211,1.1094 0,0.41016 -0.2188,0.76953 -0.5586,0.96875 l -24.629,17.66 24.68,17.691 z"
           id="path104"
           style="fill:#326ce5;fill-opacity:1;stroke:#ffffff;stroke-width:2.5;stroke-dasharray:none;stroke-opacity:1;paint-order:stroke fill markers"
           class="pod-envelope-path" /><g
           id="g107"
           transform="matrix(3.0571256,0,0,3.0571256,1475.4879,167.62565)"
           inkscape:label="pod-icon"><path
             inkscape:export-ydpi="376.57999"
             inkscape:export-xdpi="376.57999"
             style="fill:#ffffff;fill-rule:evenodd;stroke:none;stroke-width:0.264583;stroke-linecap:square;stroke-miterlimit:10"
             inkscape:connector-curvature="0"
             d="M 6.2617914,7.036086 9.8826317,5.986087 13.503462,7.036086 9.8826317,8.086087 Z"
             id="path105"
             class="pod-envelope-path" /><path
             inkscape:export-ydpi="376.57999"
             inkscape:export-xdpi="376.57999"
             style="fill:#ffffff;fill-rule:evenodd;stroke:none;stroke-width:0.264583;stroke-linecap:square;stroke-miterlimit:10"
             inkscape:connector-curvature="0"
             d="m 6.2617914,7.43817 v 3.852778 l 3.3736103,1.868749 0.0167,-4.713193 z"
             id="path106"
             class="pod-envelope-path" /><path
             inkscape:export-ydpi="376.57999"
             inkscape:export-xdpi="376.57999"
             style="fill:#ffffff;fill-rule:evenodd;stroke:none;stroke-width:0.264583;stroke-linecap:square;stroke-miterlimit:10"
             inkscape:connector-curvature="0"
             d="m 13.503462,7.43817 v 3.852778 l -3.37361,1.868749 -0.0167,-4.713193 z"
             id="path107"
             class="pod-envelope-path" /></g></g><g
         id="g103"
         inkscape:label="pod-envelope-3"
         transform="matrix(0.3979377,0,0,0.3979377,474.26846,-28.566666)"><path
           d="m 1538.0774,183.6466 h -64.758 c -4.1992,0 -7.6211,3.4102 -7.6211,7.6094 v 37.488 c 0,4.1992 3.4219,7.6094 7.6211,7.6094 h 64.762 c 4.1992,0 7.6211,-3.4102 7.6211,-7.6094 v -37.477 c 0,-4.1992 -3.4219,-7.6094 -7.6211,-7.6094 z m 0.1211,44.051 c 0.3008,0.19922 0.5,0.53906 0.5,0.92969 0,0.60938 -0.4883,1.1094 -1.1016,1.1094 h -0.012 c -0.2305,0 -0.461,-0.0781 -0.6406,-0.21094 l -25.32,-18.16 -3.3281,2.3906 c -0.7813,0.55859 -1.6797,0.82812 -2.5898,0.82812 -0.9102,0 -1.8086,-0.28125 -2.5898,-0.82812 l -3.3281,-2.3906 -25.32,18.16 c -0.1915,0.12891 -0.4102,0.21094 -0.6407,0.21094 -0.6093,0 -1.1094,-0.5 -1.1094,-1.1094 0,-0.41016 0.211,-0.76953 0.5391,-0.96875 l 24.629,-17.66 -24.711,-17.711 c -0.5,-0.37109 -0.6094,-1.0586 -0.2617,-1.5586 0.3594,-0.5 1.0391,-0.60938 1.5391,-0.26172 l 29.961,21.469 c 0.7695,0.55859 1.8086,0.55859 2.5781,0 l 29.961,-21.469 c 0.1914,-0.12891 0.4101,-0.21094 0.6406,-0.21094 0.6094,0 1.1211,0.5 1.1211,1.1094 0,0.41016 -0.2188,0.76953 -0.5586,0.96875 l -24.629,17.66 24.68,17.691 z"
           id="path99"
           style="fill:#326ce5;fill-opacity:1;stroke:#ffffff;stroke-width:2.5;stroke-dasharray:none;stroke-opacity:1;paint-order:stroke fill markers"
           class="pod-envelope-path" /><g
           id="g102"
           transform="matrix(3.0571256,0,0,3.0571256,1475.4879,167.62565)"
           inkscape:label="pod-icon"><path
             inkscape:export-ydpi="376.57999"
             inkscape:export-xdpi="376.57999"
             style="fill:#ffffff;fill-rule:evenodd;stroke:none;stroke-width:0.264583;stroke-linecap:square;stroke-miterlimit:10"
             inkscape:connector-curvature="0"
             d="M 6.2617914,7.036086 9.8826317,5.986087 13.503462,7.036086 9.8826317,8.086087 Z"
             id="path100"
             class="pod-envelope-path" /><path
             inkscape:export-ydpi="376.57999"
             inkscape:export-xdpi="376.57999"
             style="fill:#ffffff;fill-rule:evenodd;stroke:none;stroke-width:0.264583;stroke-linecap:square;stroke-miterlimit:10"
             inkscape:connector-curvature="0"
             d="m 6.2617914,7.43817 v 3.852778 l 3.3736103,1.868749 0.0167,-4.713193 z"
             id="path101"
             class="pod-envelope-path" /><path
             inkscape:export-ydpi="376.57999"
             inkscape:export-xdpi="376.57999"
             style="fill:#ffffff;fill-rule:evenodd;stroke:none;stroke-width:0.264583;stroke-linecap:square;stroke-miterlimit:10"
             inkscape:connector-curvature="0"
             d="m 13.503462,7.43817 v 3.852778 l -3.37361,1.868749 -0.0167,-4.713193 z"
             id="path102"
             class="pod-envelope-path" /></g></g><g
         id="g93"
         inkscape:label="pod-envelope-2"
         transform="matrix(0.3979377,0,0,0.3979377,401.81012,41.433188)"><path
           d="m 1538.0774,183.6466 h -64.758 c -4.1992,0 -7.6211,3.4102 -7.6211,7.6094 v 37.488 c 0,4.1992 3.4219,7.6094 7.6211,7.6094 h 64.762 c 4.1992,0 7.6211,-3.4102 7.6211,-7.6094 v -37.477 c 0,-4.1992 -3.4219,-7.6094 -7.6211,-7.6094 z m 0.1211,44.051 c 0.3008,0.19922 0.5,0.53906 0.5,0.92969 0,0.60938 -0.4883,1.1094 -1.1016,1.1094 h -0.012 c -0.2305,0 -0.461,-0.0781 -0.6406,-0.21094 l -25.32,-18.16 -3.3281,2.3906 c -0.7813,0.55859 -1.6797,0.82812 -2.5898,0.82812 -0.9102,0 -1.8086,-0.28125 -2.5898,-0.82812 l -3.3281,-2.3906 -25.32,18.16 c -0.1915,0.12891 -0.4102,0.21094 -0.6407,0.21094 -0.6093,0 -1.1094,-0.5 -1.1094,-1.1094 0,-0.41016 0.211,-0.76953 0.5391,-0.96875 l 24.629,-17.66 -24.711,-17.711 c -0.5,-0.37109 -0.6094,-1.0586 -0.2617,-1.5586 0.3594,-0.5 1.0391,-0.60938 1.5391,-0.26172 l 29.961,21.469 c 0.7695,0.55859 1.8086,0.55859 2.5781,0 l 29.961,-21.469 c 0.1914,-0.12891 0.4101,-0.21094 0.6406,-0.21094 0.6094,0 1.1211,0.5 1.1211,1.1094 0,0.41016 -0.2188,0.76953 -0.5586,0.96875 l -24.629,17.66 24.68,17.691 z"
           id="path89"
           style="fill:#326ce5;fill-opacity:1;stroke:#ffffff;stroke-width:2.5;stroke-dasharray:none;stroke-opacity:1;paint-order:stroke fill markers"
           class="pod-envelope-path" /><g
           id="g92"
           transform="matrix(3.0571256,0,0,3.0571256,1475.4879,167.62565)"
           inkscape:label="pod-icon"><path
             inkscape:export-ydpi="376.57999"
             inkscape:export-xdpi="376.57999"
             style="fill:#ffffff;fill-rule:evenodd;stroke:none;stroke-width:0.264583;stroke-linecap:square;stroke-miterlimit:10"
             inkscape:connector-curvature="0"
             d="M 6.2617914,7.036086 9.8826317,5.986087 13.503462,7.036086 9.8826317,8.086087 Z"
             id="path90"
             class="pod-envelope-path" /><path
             inkscape:export-ydpi="376.57999"
             inkscape:export-xdpi="376.57999"
             style="fill:#ffffff;fill-rule:evenodd;stroke:none;stroke-width:0.264583;stroke-linecap:square;stroke-miterlimit:10"
             inkscape:connector-curvature="0"
             d="m 6.2617914,7.43817 v 3.852778 l 3.3736103,1.868749 0.0167,-4.713193 z"
             id="path91"
             class="pod-envelope-path" /><path
             inkscape:export-ydpi="376.57999"
             inkscape:export-xdpi="376.57999"
             style="fill:#ffffff;fill-rule:evenodd;stroke:none;stroke-width:0.264583;stroke-linecap:square;stroke-miterlimit:10"
             inkscape:connector-curvature="0"
             d="m 13.503462,7.43817 v 3.852778 l -3.37361,1.868749 -0.0167,-4.713193 z"
             id="path92"
             class="pod-envelope-path" /></g></g><g
         id="g89"
         inkscape:label="pod-envelope-1"
         transform="matrix(0.3979377,0,0,0.3979377,294.50157,41.433189)"><path
           d="m 1538.0774,183.6466 h -64.758 c -4.1992,0 -7.6211,3.4102 -7.6211,7.6094 v 37.488 c 0,4.1992 3.4219,7.6094 7.6211,7.6094 h 64.762 c 4.1992,0 7.6211,-3.4102 7.6211,-7.6094 v -37.477 c 0,-4.1992 -3.4219,-7.6094 -7.6211,-7.6094 z m 0.1211,44.051 c 0.3008,0.19922 0.5,0.53906 0.5,0.92969 0,0.60938 -0.4883,1.1094 -1.1016,1.1094 h -0.012 c -0.2305,0 -0.461,-0.0781 -0.6406,-0.21094 l -25.32,-18.16 -3.3281,2.3906 c -0.7813,0.55859 -1.6797,0.82812 -2.5898,0.82812 -0.9102,0 -1.8086,-0.28125 -2.5898,-0.82812 l -3.3281,-2.3906 -25.32,18.16 c -0.1915,0.12891 -0.4102,0.21094 -0.6407,0.21094 -0.6093,0 -1.1094,-0.5 -1.1094,-1.1094 0,-0.41016 0.211,-0.76953 0.5391,-0.96875 l 24.629,-17.66 -24.711,-17.711 c -0.5,-0.37109 -0.6094,-1.0586 -0.2617,-1.5586 0.3594,-0.5 1.0391,-0.60938 1.5391,-0.26172 l 29.961,21.469 c 0.7695,0.55859 1.8086,0.55859 2.5781,0 l 29.961,-21.469 c 0.1914,-0.12891 0.4101,-0.21094 0.6406,-0.21094 0.6094,0 1.1211,0.5 1.1211,1.1094 0,0.41016 -0.2188,0.76953 -0.5586,0.96875 l -24.629,17.66 24.68,17.691 z"
           id="path85"
           style="fill:#326ce5;fill-opacity:1;stroke:#ffffff;stroke-width:2.5;stroke-dasharray:none;stroke-opacity:1;paint-order:stroke fill markers"
           class="pod-envelope-path" /><g
           id="g88"
           transform="matrix(3.0571256,0,0,3.0571256,1475.4879,167.62565)"
           inkscape:label="pod-icon"><path
             inkscape:export-ydpi="376.57999"
             inkscape:export-xdpi="376.57999"
             style="fill:#ffffff;fill-rule:evenodd;stroke:none;stroke-width:0.264583;stroke-linecap:square;stroke-miterlimit:10"
             inkscape:connector-curvature="0"
             d="M 6.2617914,7.036086 9.8826317,5.986087 13.503462,7.036086 9.8826317,8.086087 Z"
             id="path86"
             class="pod-envelope-path" /><path
             inkscape:export-ydpi="376.57999"
             inkscape:export-xdpi="376.57999"
             style="fill:#ffffff;fill-rule:evenodd;stroke:none;stroke-width:0.264583;stroke-linecap:square;stroke-miterlimit:10"
             inkscape:connector-curvature="0"
             d="m 6.2617914,7.43817 v 3.852778 l 3.3736103,1.868749 0.0167,-4.713193 z"
             id="path87"
             class="pod-envelope-path" /><path
             inkscape:export-ydpi="376.57999"
             inkscape:export-xdpi="376.57999"
             style="fill:#ffffff;fill-rule:evenodd;stroke:none;stroke-width:0.264583;stroke-linecap:square;stroke-miterlimit:10"
             inkscape:connector-curvature="0"
             d="m 13.503462,7.43817 v 3.852778 l -3.37361,1.868749 -0.0167,-4.713193 z"
             id="path88"
             class="pod-envelope-path" /></g></g><g
         id="g99"
         inkscape:label="deployment-envelope-2"
         transform="matrix(0.39793809,0,0,0.39793809,500.28124,6.4542303)"><path
           d="m 1538.0774,183.6466 h -64.758 c -4.1992,0 -7.6211,3.4102 -7.6211,7.6094 v 37.488 c 0,4.1992 3.4219,7.6094 7.6211,7.6094 h 64.762 c 4.1992,0 7.6211,-3.4102 7.6211,-7.6094 v -37.477 c 0,-4.1992 -3.4219,-7.6094 -7.6211,-7.6094 z m 0.1211,44.051 c 0.3008,0.19922 0.5,0.53906 0.5,0.92969 0,0.60938 -0.4883,1.1094 -1.1016,1.1094 h -0.012 c -0.2305,0 -0.461,-0.0781 -0.6406,-0.21094 l -25.32,-18.16 -3.3281,2.3906 c -0.7813,0.55859 -1.6797,0.82812 -2.5898,0.82812 -0.9102,0 -1.8086,-0.28125 -2.5898,-0.82812 l -3.3281,-2.3906 -25.32,18.16 c -0.1915,0.12891 -0.4102,0.21094 -0.6407,0.21094 -0.6093,0 -1.1094,-0.5 -1.1094,-1.1094 0,-0.41016 0.211,-0.76953 0.5391,-0.96875 l 24.629,-17.66 -24.711,-17.711 c -0.5,-0.37109 -0.6094,-1.0586 -0.2617,-1.5586 0.3594,-0.5 1.0391,-0.60938 1.5391,-0.26172 l 29.961,21.469 c 0.7695,0.55859 1.8086,0.55859 2.5781,0 l 29.961,-21.469 c 0.1914,-0.12891 0.4101,-0.21094 0.6406,-0.21094 0.6094,0 1.1211,0.5 1.1211,1.1094 0,0.41016 -0.2188,0.76953 -0.5586,0.96875 l -24.629,17.66 24.68,17.691 z"
           id="path96"
           style="fill:#326ce5;fill-opacity:1;stroke:#ffffff;stroke-width:2.5;stroke-dasharray:none;stroke-opacity:1;paint-order:stroke fill markers" /><g
           id="g98"
           transform="matrix(2.1648517,0,0,2.1648517,1482.6532,176.75156)"
           inkscape:label="deployment-icon"><path
             style="fill:#ffffff;fill-rule:evenodd;stroke:none;stroke-width:0.264583;stroke-linecap:square;stroke-miterlimit:10"
             inkscape:connector-curvature="0"
             d="m 10.225062,13.731632 v 0 C 7.7824218,13.847177 5.7050116,11.968386 5.5753417,9.5264634 5.4456516,7.0845405 7.3124018,4.9962905 9.7535318,4.8524795 c 2.4411202,-0.143811 4.5401412,1.71081 4.6980812,4.1510682 l -1.757081,0.1137208 c -0.0954,-1.473818 -1.36311,-2.593935 -2.8374602,-2.50708 -1.47434,0.08686 -2.60178,1.3480761 -2.52346,2.8228991 0.0783,1.4748224 1.333,2.6095384 2.8082502,2.5397534 z"
             id="path97" /><path
             style="fill:#ffffff;fill-rule:evenodd;stroke:none;stroke-width:0.264583;stroke-linecap:square;stroke-miterlimit:10"
             inkscape:connector-curvature="0"
             d="m 11.135574,9.0088015 1.39745,3.4205085 3.2263,-3.4205085 z"
             id="path98" /></g></g><g
         id="g96"
         inkscape:label="deployment-envelope-1"
         transform="matrix(0.39793809,0,0,0.39793809,348.15526,41.433106)"><path
           d="m 1538.0774,183.6466 h -64.758 c -4.1992,0 -7.6211,3.4102 -7.6211,7.6094 v 37.488 c 0,4.1992 3.4219,7.6094 7.6211,7.6094 h 64.762 c 4.1992,0 7.6211,-3.4102 7.6211,-7.6094 v -37.477 c 0,-4.1992 -3.4219,-7.6094 -7.6211,-7.6094 z m 0.1211,44.051 c 0.3008,0.19922 0.5,0.53906 0.5,0.92969 0,0.60938 -0.4883,1.1094 -1.1016,1.1094 h -0.012 c -0.2305,0 -0.461,-0.0781 -0.6406,-0.21094 l -25.32,-18.16 -3.3281,2.3906 c -0.7813,0.55859 -1.6797,0.82812 -2.5898,0.82812 -0.9102,0 -1.8086,-0.28125 -2.5898,-0.82812 l -3.3281,-2.3906 -25.32,18.16 c -0.1915,0.12891 -0.4102,0.21094 -0.6407,0.21094 -0.6093,0 -1.1094,-0.5 -1.1094,-1.1094 0,-0.41016 0.211,-0.76953 0.5391,-0.96875 l 24.629,-17.66 -24.711,-17.711 c -0.5,-0.37109 -0.6094,-1.0586 -0.2617,-1.5586 0.3594,-0.5 1.0391,-0.60938 1.5391,-0.26172 l 29.961,21.469 c 0.7695,0.55859 1.8086,0.55859 2.5781,0 l 29.961,-21.469 c 0.1914,-0.12891 0.4101,-0.21094 0.6406,-0.21094 0.6094,0 1.1211,0.5 1.1211,1.1094 0,0.41016 -0.2188,0.76953 -0.5586,0.96875 l -24.629,17.66 24.68,17.691 z"
           id="path93"
           style="fill:#326ce5;fill-opacity:1;stroke:#ffffff;stroke-width:2.5;stroke-dasharray:none;stroke-opacity:1;paint-order:stroke fill markers" /><g
           id="g95"
           transform="matrix(2.1648517,0,0,2.1648517,1482.6532,176.75156)"
           inkscape:label="deployment-icon"><path
             style="fill:#ffffff;fill-rule:evenodd;stroke:none;stroke-width:0.264583;stroke-linecap:square;stroke-miterlimit:10"
             inkscape:connector-curvature="0"
             d="m 10.225062,13.731632 v 0 C 7.7824218,13.847177 5.7050116,11.968386 5.5753417,9.5264634 5.4456516,7.0845405 7.3124018,4.9962905 9.7535318,4.8524795 c 2.4411202,-0.143811 4.5401412,1.71081 4.6980812,4.1510682 l -1.757081,0.1137208 c -0.0954,-1.473818 -1.36311,-2.593935 -2.8374602,-2.50708 -1.47434,0.08686 -2.60178,1.3480761 -2.52346,2.8228991 0.0783,1.4748224 1.333,2.6095384 2.8082502,2.5397534 z"
             id="path94" /><path
             style="fill:#ffffff;fill-rule:evenodd;stroke:none;stroke-width:0.264583;stroke-linecap:square;stroke-miterlimit:10"
             inkscape:connector-curvature="0"
             d="m 11.135574,9.0088015 1.39745,3.4205085 3.2263,-3.4205085 z"
             id="path95" /></g></g><g
         id="g104"
         inkscape:label="?-envelope"
         transform="matrix(0.39793809,0,0,0.39793809,474.26782,111.433)"><path
           d="m 1538.0774,183.6466 h -64.758 c -4.1992,0 -7.6211,3.4102 -7.6211,7.6094 v 37.488 c 0,4.1992 3.4219,7.6094 7.6211,7.6094 h 64.762 c 4.1992,0 7.6211,-3.4102 7.6211,-7.6094 v -37.477 c 0,-4.1992 -3.4219,-7.6094 -7.6211,-7.6094 z m 0.1211,44.051 c 0.3008,0.19922 0.5,0.53906 0.5,0.92969 0,0.60938 -0.4883,1.1094 -1.1016,1.1094 h -0.012 c -0.2305,0 -0.461,-0.0781 -0.6406,-0.21094 l -25.32,-18.16 -3.3281,2.3906 c -0.7813,0.55859 -1.6797,0.82812 -2.5898,0.82812 -0.9102,0 -1.8086,-0.28125 -2.5898,-0.82812 l -3.3281,-2.3906 -25.32,18.16 c -0.1915,0.12891 -0.4102,0.21094 -0.6407,0.21094 -0.6093,0 -1.1094,-0.5 -1.1094,-1.1094 0,-0.41016 0.211,-0.76953 0.5391,-0.96875 l 24.629,-17.66 -24.711,-17.711 c -0.5,-0.37109 -0.6094,-1.0586 -0.2617,-1.5586 0.3594,-0.5 1.0391,-0.60938 1.5391,-0.26172 l 29.961,21.469 c 0.7695,0.55859 1.8086,0.55859 2.5781,0 l 29.961,-21.469 c 0.1914,-0.12891 0.4101,-0.21094 0.6406,-0.21094 0.6094,0 1.1211,0.5 1.1211,1.1094 0,0.41016 -0.2188,0.76953 -0.5586,0.96875 l -24.629,17.66 24.68,17.691 z"
           id="path103"
           style="fill:#326ce5;fill-opacity:1;stroke:#ffffff;stroke-width:2.5;stroke-dasharray:none;stroke-opacity:1;paint-order:stroke fill markers" /><text
           xml:space="preserve"
           style="font-style:normal;font-weight:normal;font-size:21.384px;line-height:1.25;font-family:sans-serif;fill:#000000;fill-opacity:1;stroke:none;stroke-width:0.572783"
           x="1501.5594"
           y="203.8275"
           id="text103"
           inkscape:label="?-icon"><tspan
             sodipodi:role="line"
             id="tspan103"
             style="font-size:21.384px;fill:#ffffff;stroke-width:0.572783"
             x="1501.5594"
             y="203.8275">?</tspan></text></g><g
         id="g109"
         inkscape:label="?-envelope-2"
         transform="matrix(0.39793809,0,0,0.39793809,530.55874,76.432999)"><path
           d="m 1538.0774,183.6466 h -64.758 c -4.1992,0 -7.6211,3.4102 -7.6211,7.6094 v 37.488 c 0,4.1992 3.4219,7.6094 7.6211,7.6094 h 64.762 c 4.1992,0 7.6211,-3.4102 7.6211,-7.6094 v -37.477 c 0,-4.1992 -3.4219,-7.6094 -7.6211,-7.6094 z m 0.1211,44.051 c 0.3008,0.19922 0.5,0.53906 0.5,0.92969 0,0.60938 -0.4883,1.1094 -1.1016,1.1094 h -0.012 c -0.2305,0 -0.461,-0.0781 -0.6406,-0.21094 l -25.32,-18.16 -3.3281,2.3906 c -0.7813,0.55859 -1.6797,0.82812 -2.5898,0.82812 -0.9102,0 -1.8086,-0.28125 -2.5898,-0.82812 l -3.3281,-2.3906 -25.32,18.16 c -0.1915,0.12891 -0.4102,0.21094 -0.6407,0.21094 -0.6093,0 -1.1094,-0.5 -1.1094,-1.1094 0,-0.41016 0.211,-0.76953 0.5391,-0.96875 l 24.629,-17.66 -24.711,-17.711 c -0.5,-0.37109 -0.6094,-1.0586 -0.2617,-1.5586 0.3594,-0.5 1.0391,-0.60938 1.5391,-0.26172 l 29.961,21.469 c 0.7695,0.55859 1.8086,0.55859 2.5781,0 l 29.961,-21.469 c 0.1914,-0.12891 0.4101,-0.21094 0.6406,-0.21094 0.6094,0 1.1211,0.5 1.1211,1.1094 0,0.41016 -0.2188,0.76953 -0.5586,0.96875 l -24.629,17.66 24.68,17.691 z"
           id="path108"
           style="fill:#326ce5;fill-opacity:1;stroke:#ffffff;stroke-width:2.5;stroke-dasharray:none;stroke-opacity:1;paint-order:stroke fill markers" /><text
           xml:space="preserve"
           style="font-style:normal;font-weight:normal;font-size:21.384px;line-height:1.25;font-family:sans-serif;fill:#000000;fill-opacity:1;stroke:none;stroke-width:0.572783"
           x="1501.5594"
           y="203.8275"
           id="text108"
           inkscape:label="?-icon"><tspan
             sodipodi:role="line"
             id="tspan108"
             style="font-size:21.384px;fill:#ffffff;stroke-width:0.572783"
             x="1501.5594"
             y="203.8275">?</tspan></text></g></g></g></svg>
